#created with MagicaVoxel and VoxelOptimizer  - v:8 - f:6
o Mdl_TheFaceless_5
mtllib Mdl_TheFaceless_5.mtl
vn 0 1 0
vn 0 -1 0
vn -1 0 0
vn 1 0 0
vn 0 0 1
vn 0 0 -1
v -1 -4.5 -1
v -1 -4.5 1
v 1 -4.5 1
v 1 -4.5 -1
v -1 4.5 -1
v -1 4.5 1
v 1 4.5 1
v 1 4.5 -1
vt 0.0000 1.0000
vt 0.0000 0.4375
vt 0.1250 0.4375
vt 0.1250 1.0000
vt 0.2500 0.4375
vt 0.2500 1.0000
vt 0.3750 0.4375
vt 0.3750 1.0000
vt 0.5000 0.4375
vt 0.5000 1.0000
vt 0.0000 0.3125
vt 0.1250 0.3125
vt 0.0000 0.1875
vt 0.1250 0.1875
usemtl x
f 5/11/1 6/12/1 7/3/1 8/2/1
f 4/13/2 3/14/2 2/12/2 1/11/2
f 4/2/6 1/3/6 5/4/6 8/1/6
f 2/3/5 3/5/5 7/6/5 6/4/5
f 1/5/3 2/7/3 6/8/3 5/6/3
f 3/7/4 4/9/4 8/10/4 7/8/4
