#created with MagicaVoxel and VoxelOptimizer  - v:146 - f:105
o Mdl_TheFaceless_6
mtllib Mdl_TheFaceless_6.mtl
vn 0 1 0
vn 0 -1 0
vn -1 0 0
vn 1 0 0
vn 0 0 1
vn 0 0 -1
v -2 -2 -7
v -2 -2 -6
v 1 -2 -6
v 1 -2 -7
v -2 2 -7
v -2 2 -6
v 1 2 -6
v 1 2 -7
v -2 -2 6
v -2 -2 7
v 1 -2 7
v 1 -2 6
v -2 2 6
v -2 2 7
v 1 2 7
v 1 2 6
v 0 -2 -1
v 0 -2 1
v 3 -2 1
v 3 -2 -1
v 0 2 -1
v 0 2 1
v 3 2 1
v 3 2 -1
v 1 -2 -2
v 1 -2 -1
v 3 -2 -2
v 1 2 -2
v 1 2 -1
v 3 2 -2
v 1 -2 1
v 1 -2 2
v 3 -2 2
v 1 2 1
v 1 2 2
v 3 2 2
v 2 -2 -5
v 2 -2 -2
v 3 -2 -5
v 2 2 -5
v 2 2 -2
v 3 2 -5
v 2 -2 2
v 2 -2 5
v 3 -2 5
v 2 2 2
v 2 2 5
v 3 2 5
v -3 0 -7
v -3 0 -3
v -2 0 -3
v -2 0 -7
v -3 2 -7
v -3 2 -3
v -2 2 -3
v -3 0 3
v -3 0 7
v -2 0 7
v -2 0 3
v -3 2 3
v -3 2 7
v -2 2 3
v -2 0 -6
v -2 0 -4
v -1 0 -4
v -1 0 -6
v -2 2 -4
v -1 2 -4
v -1 2 -6
v -2 0 4
v -2 0 6
v -1 0 6
v -1 0 4
v -2 2 4
v -1 2 6
v -1 2 4
v -1 0 -5
v 3 0 -5
v 3 0 -6
v -1 2 -5
v 3 2 -6
v -1 0 5
v 3 0 6
v 3 0 5
v -1 2 5
v 3 2 6
v 1 0 -7
v 1 0 -6
v 2 0 -6
v 2 0 -7
v 2 2 -6
v 2 2 -7
v 1 0 -5
v 1 0 -2
v 2 0 -2
v 2 0 -5
v 1 2 -5
v 1 0 2
v 1 0 5
v 2 0 5
v 2 0 2
v 1 2 5
v 1 0 6
v 1 0 7
v 2 0 7
v 2 0 6
v 2 2 7
v 2 2 6
v -3 1 -3
v -3 1 3
v 0 1 3
v 0 1 -3
v 0 2 3
v 0 2 -3
v -2 1 -4
v -2 1 -3
v 1 1 -3
v 1 1 -4
v 1 2 -3
v 1 2 -4
v -2 1 3
v -2 1 4
v 1 1 4
v 1 1 3
v 1 2 4
v 1 2 3
v -1 1 -5
v -1 1 -4
v 1 1 -5
v -1 1 4
v -1 1 5
v 1 1 5
v 0 1 -1
v 1 1 -1
v 0 1 1
v 1 1 1
v 2 1 -7
v 2 1 -6
v 3 1 -6
v 3 1 -7
v 3 2 -7
v 2 1 6
v 2 1 7
v 3 1 7
v 3 1 6
v 3 2 7
vt 0 1
vt 0 0
vt 1 0
vt 1 1
usemtl x
f 5/2/1 6/3/1 7/4/1 8/1/1
f 4/2/2 3/3/2 2/4/2 1/1/2
f 4/2/6 1/3/6 5/4/6 8/1/6
f 2/2/5 3/3/5 7/4/5 6/1/5
f 1/2/3 2/3/3 6/4/3 5/1/3
f 3/2/4 4/3/4 8/4/4 7/1/4
f 13/2/1 14/3/1 15/4/1 16/1/1
f 12/2/2 11/3/2 10/4/2 9/1/2
f 12/2/6 9/3/6 13/4/6 16/1/6
f 10/2/5 11/3/5 15/4/5 14/1/5
f 9/2/3 10/3/3 14/4/3 13/1/3
f 11/2/4 12/3/4 16/4/4 15/1/4
f 21/2/1 22/3/1 23/4/1 24/1/1
f 20/2/2 19/3/2 18/4/2 17/1/2
f 20/2/6 17/3/6 21/4/6 24/1/6
f 18/2/5 19/3/5 23/4/5 22/1/5
f 17/2/3 18/3/3 22/4/3 21/1/3
f 19/2/4 20/3/4 24/4/4 23/1/4
f 28/2/1 29/3/1 24/4/1 30/1/1
f 27/2/2 20/3/2 26/4/2 25/1/2
f 27/2/6 25/3/6 28/4/6 30/1/6
f 25/2/3 26/3/3 29/4/3 28/1/3
f 20/2/4 27/3/4 30/4/4 24/1/4
f 34/2/1 35/3/1 36/4/1 23/1/1
f 19/2/2 33/3/2 32/4/2 31/1/2
f 32/2/5 33/3/5 36/4/5 35/1/5
f 31/2/3 32/3/3 35/4/3 34/1/3
f 33/2/4 19/3/4 23/4/4 36/1/4
f 40/2/1 41/3/1 30/4/1 42/1/1
f 39/2/2 27/3/2 38/4/2 37/1/2
f 39/2/6 37/3/6 40/4/6 42/1/6
f 37/2/3 38/3/3 41/4/3 40/1/3
f 27/2/4 39/3/4 42/4/4 30/1/4
f 46/2/1 47/3/1 48/4/1 36/1/1
f 33/2/2 45/3/2 44/4/2 43/1/2
f 44/2/5 45/3/5 48/4/5 47/1/5
f 43/2/3 44/3/3 47/4/3 46/1/3
f 45/2/4 33/3/4 36/4/4 48/1/4
f 53/2/1 54/3/1 55/4/1 5/1/1
f 52/2/2 51/3/2 50/4/2 49/1/2
f 52/2/6 49/3/6 53/4/6 5/1/6
f 50/2/5 51/3/5 55/4/5 54/1/5
f 49/2/3 50/3/3 54/4/3 53/1/3
f 51/2/4 52/3/4 5/4/4 55/1/4
f 60/2/1 61/3/1 14/4/1 62/1/1
f 59/2/2 58/3/2 57/4/2 56/1/2
f 59/2/6 56/3/6 60/4/6 62/1/6
f 57/2/5 58/3/5 14/4/5 61/1/5
f 56/2/3 57/3/3 61/4/3 60/1/3
f 58/2/4 59/3/4 62/4/4 14/1/4
f 6/2/1 67/3/1 68/4/1 69/1/1
f 66/2/2 65/3/2 64/4/2 63/1/2
f 64/2/5 65/3/5 68/4/5 67/1/5
f 65/2/4 66/3/4 69/4/4 68/1/4
f 74/2/1 13/3/1 75/4/1 76/1/1
f 73/2/2 72/3/2 71/4/2 70/1/2
f 73/2/6 70/3/6 74/4/6 76/1/6
f 72/2/4 73/3/4 76/4/4 75/1/4
f 69/2/1 80/3/1 42/4/1 81/1/1
f 79/2/2 78/3/2 77/4/2 66/1/2
f 79/2/6 66/3/6 69/4/6 81/1/6
f 77/2/5 78/3/5 42/4/5 80/1/5
f 78/2/4 79/3/4 81/4/4 42/1/4
f 85/2/1 75/3/1 86/4/1 48/1/1
f 84/2/2 83/3/2 72/4/2 82/1/2
f 84/2/6 82/3/6 85/4/6 48/1/6
f 72/2/5 83/3/5 86/4/5 75/1/5
f 83/2/4 84/3/4 48/4/4 86/1/4
f 8/2/1 7/3/1 91/4/1 92/1/1
f 90/2/2 89/3/2 88/4/2 87/1/2
f 90/2/6 87/3/6 8/4/6 92/1/6
f 89/2/4 90/3/4 92/4/4 91/1/4
f 97/2/1 28/3/1 41/4/1 40/1/1
f 96/2/2 95/3/2 94/4/2 93/1/2
f 93/2/3 94/3/3 28/4/3 97/1/3
f 35/2/1 102/3/1 47/4/1 46/1/1
f 101/2/2 100/3/2 99/4/2 98/1/2
f 98/2/3 99/3/3 102/4/3 35/1/3
f 16/2/1 15/3/1 107/4/1 108/1/1
f 106/2/2 105/3/2 104/4/2 103/1/2
f 104/2/5 105/3/5 107/4/5 15/1/5
f 105/2/4 106/3/4 108/4/4 107/1/4
f 54/2/1 60/3/1 113/4/1 114/1/1
f 112/2/2 111/3/2 110/4/2 109/1/2
f 109/2/3 110/3/3 60/4/3 54/1/3
f 67/2/1 55/3/1 119/4/1 120/1/1
f 118/2/2 117/3/2 116/4/2 115/1/2
f 62/2/1 74/3/1 125/4/1 126/1/1
f 124/2/2 123/3/2 122/4/2 121/1/2
f 80/2/1 68/3/1 120/4/1 97/1/1
f 129/2/2 118/3/2 128/4/2 127/1/2
f 76/2/1 85/3/1 102/4/1 125/1/1
f 123/2/2 132/3/2 131/4/2 130/1/2
f 114/2/1 21/3/1 29/4/1 119/1/1
f 117/2/2 134/3/2 133/4/2 112/1/2
f 22/2/1 113/3/1 126/4/1 34/1/1
f 136/2/2 124/3/2 111/4/2 135/1/2
f 92/2/1 91/3/1 81/4/1 141/1/1
f 140/2/2 139/3/2 138/4/2 137/1/2
f 140/2/6 137/3/6 92/4/6 141/1/6
f 139/2/4 140/3/4 141/4/4 81/1/4
f 108/2/1 107/3/1 146/4/1 86/1/1
f 145/2/2 144/3/2 143/4/2 142/1/2
f 143/2/5 144/3/5 146/4/5 107/1/5
f 144/2/4 145/3/4 86/4/4 146/1/4
