#created with MagicaVoxel and VoxelOptimizer  - v:60 - f:42
o Mdl_TheFaceless_3
mtllib Mdl_TheFaceless_3.mtl
vn 0 1 0
vn 0 -1 0
vn -1 0 0
vn 1 0 0
vn 0 0 1
vn 0 0 -1
v -4 -1.5 -1.5
v -4 -1.5 1.5
v 4 -1.5 1.5
v 4 -1.5 -1.5
v -4 -0.5 -1.5
v -4 -0.5 1.5
v 4 -0.5 1.5
v 4 -0.5 -1.5
v -2 -1.5 -2.5
v -2 -1.5 -1.5
v 3 -1.5 -1.5
v 3 -1.5 -2.5
v -2 0.5 -2.5
v -2 0.5 -1.5
v 3 0.5 -1.5
v 3 0.5 -2.5
v -2 -1.5 1.5
v -2 -1.5 2.5
v 3 -1.5 2.5
v 3 -1.5 1.5
v -2 0.5 1.5
v -2 0.5 2.5
v 3 0.5 2.5
v 3 0.5 1.5
v -3 -0.5 -1.5
v -3 -0.5 1.5
v -3 0.5 -1.5
v -3 0.5 1.5
v 4 0.5 1.5
v 4 0.5 -1.5
v -1 0.5 -1.5
v -1 0.5 -0.5
v 4 0.5 -0.5
v -1 1.5 -1.5
v -1 1.5 -0.5
v 4 1.5 -0.5
v 4 1.5 -1.5
v -1 0.5 0.5
v -1 0.5 1.5
v 4 0.5 0.5
v -1 1.5 0.5
v -1 1.5 1.5
v 4 1.5 1.5
v 4 1.5 0.5
v 0 0.5 -2.5
v 0 0.5 -1.5
v 0 1.5 -2.5
v 0 1.5 -1.5
v 3 1.5 -1.5
v 3 1.5 -2.5
v 0 0.5 -0.5
v 0 0.5 0.5
v 0 1.5 -0.5
v 0 1.5 0.5
v 0 0.5 1.5
v 0 0.5 2.5
v 0 1.5 1.5
v 0 1.5 2.5
v 3 1.5 2.5
v 3 1.5 1.5
vt 0.0000 1.0000
vt 0.0000 0.5000
vt 0.1875 0.5000
vt 0.1875 1.0000
vt 0.0000 0.0625
vt 0.1875 0.0625
vt 0.0000 0.0000
vt 0.5000 0.0000
vt 0.5000 0.0625
vt 0.5000 1.0000
vt 0.5000 0.8750
vt 0.8125 0.8750
vt 0.8125 1.0000
vt 0.5000 0.8125
vt 0.9375 0.8125
vt 0.9375 0.8750
vt 0.5000 0.7500
vt 0.9375 0.7500
vt 0.9375 1.0000
vt 0.9375 0.6875
vt 1.0000 0.6875
vt 1.0000 1.0000
vt 0.1875 0.6875
vt 0.2500 0.6875
vt 0.2500 1.0000
vt 0.2500 0.7500
vt 0.3125 0.7500
vt 0.3125 1.0000
vt 0.3125 0.9375
vt 0.5000 0.9375
vt 0.3125 0.8750
vt 0.8125 0.9375
vt 0.8750 0.9375
vt 0.8750 1.0000
vt 0.9375 0.9375
usemtl x
f 5/2/1 6/3/1 7/4/1 8/1/1
f 4/4/2 3/1/2 2/2/2 1/3/2
f 4/7/6 1/8/6 5/9/6 8/5/6
f 2/8/5 3/7/5 7/5/5 6/9/5
f 1/32/3 2/33/3 6/34/3 5/13/3
f 3/29/4 4/30/4 8/10/4 7/28/4
f 13/20/1 14/21/1 15/22/1 16/19/1
f 12/22/2 11/19/2 10/20/2 9/21/2
f 12/11/6 9/12/6 13/13/6 16/10/6
f 9/33/3 10/35/3 14/19/3 13/34/3
f 11/32/4 12/33/4 16/34/4 15/13/4
f 21/20/1 22/21/1 23/22/1 24/19/1
f 20/22/2 19/19/2 18/20/2 17/21/2
f 18/12/5 19/11/5 23/10/5 22/13/5
f 17/33/3 18/35/3 22/19/3 21/34/3
f 19/32/4 20/33/4 24/34/4 23/13/4
f 27/5/1 28/6/1 29/3/1 30/2/1
f 8/14/6 25/15/6 27/16/6 30/11/6
f 26/17/5 7/18/5 29/15/5 28/14/5
f 25/31/3 26/11/3 28/30/3 27/29/3
f 7/29/4 8/30/4 30/10/4 29/28/4
f 34/23/1 35/24/1 36/25/1 37/4/1
f 30/25/6 31/24/6 34/23/6 37/4/6
f 32/23/5 33/4/5 36/25/5 35/24/5
f 31/33/3 32/35/3 35/19/3 34/34/3
f 33/32/4 30/33/4 37/34/4 36/13/4
f 41/23/1 42/24/1 43/25/1 44/4/1
f 40/25/6 38/24/6 41/23/6 44/4/6
f 39/23/5 29/4/5 43/25/5 42/24/5
f 38/33/3 39/35/3 42/19/3 41/34/3
f 29/32/4 40/33/4 44/34/4 43/13/4
f 47/32/1 48/33/1 49/34/1 50/13/1
f 16/32/6 45/33/6 47/34/6 50/13/6
f 45/32/3 46/33/3 48/34/3 47/13/3
f 15/32/4 16/33/4 50/34/4 49/13/4
f 53/26/1 54/27/1 44/28/1 36/25/1
f 51/32/3 52/33/3 54/34/3 53/13/3
f 40/33/4 33/35/4 36/19/4 44/34/4
f 57/32/1 58/33/1 59/34/1 60/13/1
f 56/32/5 23/33/5 59/34/5 58/13/5
f 55/32/3 56/33/3 58/34/3 57/13/3
f 23/32/4 24/33/4 60/34/4 59/13/4
