#created with MagicaVoxel and VoxelOptimizer  - v:28 - f:26
o Mdl_HumanKeeper_5
mtllib Mdl_HumanKeeper_5.mtl
vn 0 1 0
vn 0 -1 0
vn -1 0 0
vn 1 0 0
vn 0 0 1
vn 0 0 -1
v -1 -5 -1
v -1 -5 1
v 1 -5 1
v 1 -5 -1
v -1 5 -1
v -1 5 1
v 1 5 1
v 1 5 -1
v -2 -4 -1
v -2 -4 1
v -1 -4 1
v -1 -4 -1
v -2 5 -1
v -2 5 1
v -1 -4 -2
v 1 -4 -1
v 1 -4 -2
v -1 5 -2
v 1 5 -2
v -1 -4 2
v 1 -4 2
v 1 -4 1
v -1 5 2
v 1 5 2
v 2 -4 1
v 2 -4 -1
v 2 5 1
v 2 5 -1
vt 0 1
vt 0 0
vt 1 0
vt 1 1
usemtl x
f 5/2/1 6/3/1 7/4/1 8/1/1
f 4/2/2 3/3/2 2/4/2 1/1/2
f 4/2/6 1/3/6 5/4/6 8/1/6
f 2/2/5 3/3/5 7/4/5 6/1/5
f 1/2/3 2/3/3 6/4/3 5/1/3
f 3/2/4 4/3/4 8/4/4 7/1/4
f 13/2/1 14/3/1 6/4/1 5/1/1
f 12/2/2 11/3/2 10/4/2 9/1/2
f 12/2/6 9/3/6 13/4/6 5/1/6
f 10/2/5 11/3/5 6/4/5 14/1/5
f 9/2/3 10/3/3 14/4/3 13/1/3
f 18/2/1 5/3/1 8/4/1 19/1/1
f 17/2/2 16/3/2 12/4/2 15/1/2
f 17/2/6 15/3/6 18/4/6 19/1/6
f 15/2/3 12/3/3 5/4/3 18/1/3
f 16/2/4 17/3/4 19/4/4 8/1/4
f 6/2/1 23/3/1 24/4/1 7/1/1
f 22/2/2 21/3/2 20/4/2 11/1/2
f 20/2/5 21/3/5 24/4/5 23/1/5
f 11/2/3 20/3/3 23/4/3 6/1/3
f 21/2/4 22/3/4 7/4/4 24/1/4
f 8/2/1 7/3/1 27/4/1 28/1/1
f 26/2/2 25/3/2 22/4/2 16/1/2
f 26/2/6 16/3/6 8/4/6 28/1/6
f 22/2/5 25/3/5 27/4/5 7/1/5
f 25/2/4 26/3/4 28/4/4 27/1/4
