#created with MagicaVoxel and VoxelOptimizer  - v:352 - f:238
o Mdl_HumanKeeper_1
mtllib Mdl_HumanKeeper_1.mtl
vn 0 1 0
vn 0 -1 0
vn -1 0 0
vn 1 0 0
vn 0 0 1
vn 0 0 -1
v -7 -16 -2
v -7 -16 2
v 0 -16 2
v 0 -16 -2
v -7 -15 -2
v -7 -15 2
v 0 -15 2
v 0 -15 -2
v -6 -16 -5
v -6 -16 -2
v 0 -16 -5
v -6 -3 -5
v -6 -3 -2
v 0 -3 -2
v 0 -3 -5
v -6 -16 2
v -6 -16 5
v 0 -16 5
v -6 -3 2
v -6 -3 5
v 0 -3 5
v 0 -3 2
v -5 -16 -7
v -5 -16 -5
v -2 -16 -5
v -2 -16 -7
v -5 -12 -7
v -5 -12 -5
v -2 -12 -5
v -2 -12 -7
v -5 -16 5
v -5 -16 7
v -2 -16 7
v -2 -16 5
v -5 -12 5
v -5 -12 7
v -2 -12 7
v -2 -12 5
v -2 -16 -6
v 0 -16 -6
v -2 -12 -6
v 0 -12 -5
v 0 -12 -6
v -2 -16 6
v 0 -16 6
v -2 -12 6
v 0 -12 6
v 0 -12 5
v -7 -15 -3
v -7 -15 -1
v -6 -15 -1
v -6 -15 -3
v -7 -10 -3
v -7 -10 -1
v -6 -10 -1
v -6 -10 -3
v -7 -15 1
v -7 -15 3
v -6 -15 3
v -6 -15 1
v -7 -10 1
v -7 -10 3
v -6 -10 3
v -6 -10 1
v -6 -15 -6
v -6 -15 -5
v -5 -15 -5
v -5 -15 -6
v -6 -3 -6
v -5 -3 -5
v -5 -3 -6
v -6 -15 -2
v -6 -15 2
v -6 -2 -2
v -6 -2 2
v 0 -2 2
v 0 -2 -2
v -6 -15 5
v -6 -15 6
v -5 -15 6
v -5 -15 5
v -6 -3 6
v -5 -3 6
v -5 -3 5
v -7 -14 -4
v -7 -14 -3
v -6 -14 -3
v -6 -14 -4
v -7 -10 -4
v -6 -10 -4
v -7 -14 3
v -7 -14 4
v -6 -14 4
v -6 -14 3
v -7 -10 4
v -6 -10 4
v 0 -14 -5
v 0 -14 5
v 5 -14 5
v 5 -14 -5
v 0 -2 -5
v 0 -2 5
v 5 -2 5
v 5 -2 -5
v 5 -14 -4
v 5 -14 4
v 6 -14 4
v 6 -14 -4
v 5 -2 -4
v 5 -2 4
v 6 -2 4
v 6 -2 -4
v -7 -13 -5
v -7 -13 -4
v -6 -13 -4
v -6 -13 -5
v -7 -10 -5
v -6 -10 -5
v -7 -13 4
v -7 -13 5
v -6 -13 5
v -6 -13 4
v -7 -10 5
v -6 -10 5
v -7 -12 -6
v -7 -12 -5
v -6 -12 -5
v -6 -12 -6
v -7 -8 -6
v -7 -8 -5
v -6 -8 -5
v -6 -8 -6
v -7 -12 5
v -7 -12 6
v -6 -12 6
v -6 -12 5
v -7 -8 5
v -7 -8 6
v -6 -8 6
v -6 -8 5
v -4 -12 -5
v -4 -12 -7
v -5 -8 -7
v -5 -8 -5
v -4 -8 -5
v -4 -8 -7
v -4 -12 7
v -4 -12 5
v -5 -8 5
v -5 -8 7
v -4 -8 7
v -4 -8 5
v -4 -12 -6
v -4 -4 -7
v -4 -4 -6
v -2 -4 -6
v -2 -4 -7
v -4 -12 6
v -4 -4 6
v -4 -4 7
v -2 -4 7
v -2 -4 6
v -3 -12 -6
v -3 -12 -5
v -1 -12 -5
v -1 -12 -6
v -3 -3 -6
v -3 -3 -5
v -1 -3 -5
v -1 -3 -6
v -3 -12 5
v -3 -12 6
v -1 -12 6
v -1 -12 5
v -3 -3 5
v -3 -3 6
v -1 -3 6
v -1 -3 5
v -4 -11 -6
v -4 -11 -5
v -3 -11 -5
v -3 -11 -6
v -4 -3 -6
v -4 -3 -5
v -4 -11 5
v -4 -11 6
v -3 -11 6
v -3 -11 5
v -4 -3 5
v -4 -3 6
v -2 -11 -7
v -2 -11 -6
v -1 -11 -6
v -1 -11 -7
v -1 -4 -6
v -1 -4 -7
v -2 -11 6
v -2 -11 7
v -1 -11 7
v -1 -11 6
v -1 -4 7
v -1 -4 6
v -1 -11 -5
v 6 -11 -5
v 6 -11 -6
v 6 -3 -5
v 6 -3 -6
v -1 -11 5
v 6 -11 6
v 6 -11 5
v 6 -3 6
v 6 -3 5
v 5 -11 -5
v 5 -11 -4
v 7 -11 -4
v 7 -11 -5
v 5 -3 -5
v 5 -3 -4
v 7 -3 -4
v 7 -3 -5
v 5 -11 4
v 5 -11 5
v 7 -11 5
v 7 -11 4
v 5 -3 4
v 5 -3 5
v 7 -3 5
v 7 -3 4
v 6 -11 -4
v 6 -11 4
v 6 -3 -4
v 6 -3 4
v -6 -10 -7
v -6 -10 -6
v -5 -10 -6
v -5 -10 -7
v -6 -8 -7
v -5 -8 -6
v -6 -10 6
v -6 -10 7
v -5 -10 7
v -5 -10 6
v -6 -8 7
v -5 -8 6
v -1 -10 -7
v -1 -10 -6
v 6 -10 -6
v 6 -10 -7
v 6 -4 -6
v 6 -4 -7
v -1 -10 6
v -1 -10 7
v 6 -10 7
v 6 -10 6
v 6 -4 7
v 6 -4 6
v 6 -10 -5
v 7 -10 -5
v 7 -10 -6
v 6 -4 -5
v 7 -4 -5
v 7 -4 -6
v 6 -10 5
v 7 -10 6
v 7 -10 5
v 6 -4 5
v 7 -4 6
v 7 -4 5
v 7 -10 -1
v 7 -10 1
v 8 -10 1
v 8 -10 -1
v 7 -3 -1
v 7 -3 1
v 8 -3 1
v 8 -3 -1
v -4 -8 -6
v -4 -8 6
v -7 -7 -6
v -7 -7 6
v -6 -7 6
v -6 -7 -6
v -7 -4 -6
v -7 -4 6
v -6 -4 6
v -6 -4 -6
v -6 -7 -7
v -4 -7 -6
v -4 -7 -7
v -6 -4 -7
v -6 -7 7
v -4 -7 7
v -4 -7 6
v -6 -4 7
v -8 -4 -1
v -8 -4 1
v -6 -4 1
v -6 -4 -1
v -8 -3 -1
v -8 -3 1
v -6 -3 1
v -6 -3 -1
v -7 -4 -5
v -7 -4 -1
v -6 -4 -5
v -7 -3 -5
v -7 -3 -1
v -7 -4 1
v -7 -4 5
v -6 -4 5
v -7 -3 1
v -7 -3 5
v -7 -2 -1
v -7 -2 1
v -6 -2 1
v -6 -2 -1
v -6 -3 -3
v 0 -3 -3
v -6 -2 -3
v 0 -2 -3
v -6 -3 3
v 0 -3 3
v -6 -2 3
v 0 -2 3
v -5 -3 -4
v -5 -3 -3
v 0 -3 -4
v -5 -2 -4
v -5 -2 -3
v 0 -2 -4
v -5 -3 3
v -5 -3 4
v 0 -3 4
v -5 -2 3
v -5 -2 4
v 0 -2 4
v -4 -3 -4
v -4 -2 -5
v -4 -2 -4
v -4 -3 4
v -4 -2 4
v -4 -2 5
v 6 -3 -1
v 6 -3 1
v 6 -2 -1
v 6 -2 1
v 7 -2 1
v 7 -2 -1
v -6 -1 -1
v -6 -1 1
v 6 -1 1
v 6 -1 -1
vt 0.0000 1.0000
vt 0.0000 0.8125
vt 0.1562 0.8125
vt 0.1562 1.0000
vt 0.0000 0.6250
vt 0.1250 0.6250
vt 0.1250 0.8125
vt 0.0000 0.4219
vt 0.0938 0.4219
vt 0.0938 0.6250
vt 0.0000 0.2188
vt 0.0938 0.2188
vt 0.0000 0.0312
vt 0.0781 0.0312
vt 0.0781 0.2188
vt 0.1562 0.0312
vt 0.1562 0.2188
vt 0.0938 0.5000
vt 0.2188 0.5000
vt 0.2188 0.6250
vt 0.0938 0.2969
vt 0.1562 0.2969
vt 0.1562 0.5000
vt 0.1562 0.7969
vt 0.2188 0.7969
vt 0.2188 1.0000
vt 0.1250 0.7969
vt 0.1250 0.6719
vt 0.2344 0.6719
vt 0.2344 0.7969
vt 0.2188 0.8750
vt 0.3281 0.8750
vt 0.3281 1.0000
vt 0.3750 0.7969
vt 0.3750 0.8750
vt 0.2500 0.2188
vt 0.2500 0.2969
vt 0.2031 0.2969
vt 0.2031 0.5000
vt 0.2500 0.5000
vt 0.1562 0.0156
vt 0.2031 0.0156
vt 0.2031 0.2188
vt 0.2500 0.0156
vt 0.3281 0.9062
vt 0.4375 0.9062
vt 0.4375 1.0000
vt 0.2188 0.6719
vt 0.2188 0.5781
vt 0.3281 0.5781
vt 0.3281 0.6719
vt 0.2188 0.5312
vt 0.4062 0.5312
vt 0.4062 0.5781
vt 0.3281 0.7969
vt 0.3281 0.6094
vt 0.3594 0.6094
vt 0.3594 0.7969
vt 0.2344 0.6875
vt 0.2969 0.6875
vt 0.2969 0.7969
vt 0.3594 0.7031
vt 0.4219 0.7031
vt 0.4219 0.7969
vt 0.2500 0.5312
vt 0.2500 0.3906
vt 0.2812 0.3906
vt 0.2812 0.5312
vt 0.2500 0.2500
vt 0.2812 0.2500
vt 0.3750 0.9062
vt 0.3750 0.8125
vt 0.4219 0.8125
vt 0.4219 0.9062
vt 0.4062 0.6094
vt 0.4062 0.7031
vt 0.2500 0.1562
vt 0.2969 0.1562
vt 0.2969 0.2500
vt 0.2500 0.0625
vt 0.2969 0.0625
vt 0.2812 0.3438
vt 0.2969 0.3438
vt 0.2969 0.5312
vt 0.3125 0.3438
vt 0.3125 0.5312
vt 0.3125 0.1562
vt 0.3281 0.3438
vt 0.3281 0.5312
vt 0.2969 0.6719
vt 0.2969 0.0312
vt 0.3281 0.0312
vt 0.3281 0.1562
vt 0.3125 0.2188
vt 0.3438 0.2188
vt 0.3438 0.3438
vt 0.3281 0.4062
vt 0.3594 0.4062
vt 0.3594 0.5312
vt 0.5625 0.7969
vt 0.5625 0.8125
vt 0.0000 0.0156
vt 0.0000 0.0000
vt 0.1875 0.0000
vt 0.1875 0.0156
vt 0.3750 0.0000
vt 0.3750 0.0156
vt 0.2500 0.0312
vt 0.4375 0.0156
vt 0.4375 0.0312
vt 0.4375 0.8906
vt 0.4688 0.8906
vt 0.4688 1.0000
vt 0.4688 0.8594
vt 0.4844 0.8594
vt 0.4844 1.0000
vt 0.5000 0.8594
vt 0.5000 1.0000
vt 0.5156 0.8594
vt 0.5156 1.0000
vt 0.5312 0.8594
vt 0.5312 1.0000
vt 0.4219 0.8906
vt 0.4219 0.8281
vt 0.4688 0.8281
vt 0.3750 0.3438
vt 0.3750 0.4062
vt 0.1250 0.0156
vt 0.1250 0.0312
vt 0.5469 0.8125
vt 0.5469 0.8281
vt 0.3750 0.5312
vt 0.5312 0.8750
vt 0.5469 0.8750
vt 0.5469 1.0000
vt 0.5625 0.8750
vt 0.5625 1.0000
vt 0.3281 0.2188
vt 0.3281 0.0938
vt 0.3438 0.0938
vt 0.3594 0.2188
vt 0.3594 0.3438
vt 0.3594 0.0938
vt 0.3750 0.2188
vt 0.3750 0.0938
vt 0.3906 0.4062
vt 0.3906 0.5312
vt 0.3750 0.2812
vt 0.3906 0.2812
vt 0.5000 0.0000
vt 0.5000 0.0156
vt 0.4688 0.8438
vt 0.5938 0.8438
vt 0.5938 0.8594
vt 0.5625 0.9219
vt 0.5938 0.9219
vt 0.5938 1.0000
vt 0.3750 0.2031
vt 0.4062 0.2031
vt 0.4062 0.2812
vt 0.6406 0.8594
vt 0.6406 0.8750
vt 0.5781 0.8281
vt 0.5781 0.8438
vt 0.5938 0.8906
vt 0.6094 0.8906
vt 0.6094 1.0000
vt 0.6250 0.8906
vt 0.6250 1.0000
vt 0.6406 0.8906
vt 0.6406 1.0000
vt 0.3906 0.0938
vt 0.3906 0.2031
vt 0.4062 0.0938
vt 0.3906 0.4219
vt 0.4062 0.4219
vt 0.3906 0.3125
vt 0.4062 0.3125
vt 0.5938 0.7500
vt 0.6094 0.7500
vt 0.6094 0.8594
vt 0.5781 0.7344
vt 0.5938 0.7344
vt 0.5625 0.8281
vt 0.5625 0.7188
vt 0.5781 0.7188
vt 0.3594 0.0312
vt 0.3906 0.0312
vt 0.4219 0.0312
vt 0.4219 0.0938
vt 0.5000 0.7969
vt 0.5000 0.7344
vt 0.5312 0.7344
vt 0.5312 0.7969
vt 0.5625 0.7344
vt 0.5000 0.6719
vt 0.5312 0.6719
vt 0.5625 0.6719
vt 0.4375 0.7969
vt 0.4375 0.7344
vt 0.4688 0.7344
vt 0.4688 0.7969
vt 0.4375 0.7031
vt 0.4688 0.7031
vt 0.4844 0.7031
vt 0.4844 0.7969
vt 0.5000 0.7031
vt 0.4375 0.6562
vt 0.4531 0.6562
vt 0.4531 0.7344
vt 0.4219 0.6250
vt 0.4375 0.6250
vt 0.4062 0.6250
vt 0.4688 0.6562
vt 0.4688 0.6250
vt 0.4844 0.6250
vt 0.5000 0.6250
vt 0.4375 0.5781
vt 0.4531 0.5781
vt 0.4219 0.5469
vt 0.4375 0.5469
vt 0.5938 0.8750
vt 0.1562 0.6250
vt 0.1562 0.6719
vt 0.1875 0.6250
vt 0.1875 0.6719
vt 0.4062 0.5469
vt 0.4062 0.5000
vt 0.4375 0.5000
vt 0.3281 0.5938
vt 0.3906 0.5938
vt 0.3906 0.6094
vt 0.4062 0.5625
vt 0.4219 0.5625
vt 0.4531 0.5938
vt 0.4688 0.5938
vt 0.4062 0.4375
vt 0.4219 0.4375
vt 0.4219 0.5000
vt 0.4062 0.3906
vt 0.4219 0.3906
vt 0.4062 0.3438
vt 0.4219 0.3438
usemtl x
f 5/59/1 6/60/1 7/61/1 8/30/1
f 4/60/2 3/59/2 2/30/2 1/61/2
f 4/121/6 1/161/6 5/162/6 8/133/6
f 2/125/5 3/163/5 7/164/5 6/152/5
f 1/29/3 2/90/3 6/60/3 5/59/3
f 3/230/4 4/231/4 8/232/4 7/56/4
f 12/72/1 13/73/1 14/74/1 15/71/1
f 11/57/2 4/75/2 10/76/2 9/62/2
f 11/8/6 9/9/6 12/10/6 15/5/6
f 9/22/3 10/38/3 13/39/3 12/23/3
f 4/38/4 11/37/4 15/40/4 14/39/4
f 19/77/1 20/78/1 21/79/1 22/69/1
f 3/80/2 18/81/2 17/78/2 16/77/2
f 17/11/5 18/12/5 21/9/5 20/8/5
f 16/41/3 17/42/3 20/43/3 19/17/3
f 18/42/4 3/44/4 22/36/4 21/43/4
f 27/136/1 28/222/1 29/156/1 30/155/1
f 26/6/2 25/223/2 24/224/2 23/28/2
f 26/124/6 23/125/6 27/112/6 30/123/6
f 23/92/3 24/187/3 28/143/3 27/139/3
f 25/187/4 26/188/4 30/172/4 29/143/4
f 35/223/1 36/6/1 37/28/1 38/224/1
f 34/223/2 33/225/2 32/226/2 31/224/2
f 32/88/5 33/126/5 37/127/5 36/97/5
f 31/188/3 32/189/3 36/190/3 35/172/3
f 33/192/4 34/193/4 38/194/4 37/191/4
f 41/130/1 29/101/1 42/184/1 43/131/1
f 40/130/2 11/101/2 25/184/2 39/131/2
f 40/193/6 39/195/6 41/100/6 43/194/6
f 11/87/4 40/93/4 43/138/4 42/94/4
f 38/130/1 46/101/1 47/184/1 48/131/1
f 18/130/2 45/101/2 44/184/2 34/131/2
f 44/196/5 45/197/5 47/193/5 46/192/5
f 45/87/4 18/93/4 48/138/4 47/94/4
f 53/130/1 54/101/1 55/184/1 56/131/1
f 52/27/2 51/24/2 50/3/2 49/7/2
f 52/208/6 49/209/6 53/210/6 56/200/6
f 50/211/5 51/212/5 55/203/5 54/63/5
f 49/155/3 50/156/3 54/157/3 53/137/3
f 61/123/1 62/111/1 63/46/1 64/74/1
f 60/24/2 59/27/2 58/7/2 57/3/2
f 60/213/6 57/211/6 61/63/6 64/76/6
f 58/209/5 59/214/5 63/201/5 62/210/5
f 57/158/3 58/159/3 62/160/3 61/148/3
f 69/130/1 12/101/1 70/184/1 71/131/1
f 68/130/2 67/101/2 66/184/2 65/131/2
f 68/82/6 65/83/6 69/84/6 71/68/6
f 65/82/3 66/83/3 12/84/3 69/68/3
f 74/62/1 75/63/1 76/64/1 77/58/1
f 72/21/3 73/22/3 75/23/3 74/18/3
f 7/24/4 8/25/4 77/26/4 76/4/4
f 20/123/1 82/111/1 83/46/1 84/74/1
f 81/130/2 80/101/2 79/184/2 78/131/2
f 79/83/5 80/85/5 83/86/5 82/84/5
f 78/83/3 79/85/3 82/86/3 20/84/3
f 89/130/1 53/101/1 56/184/1 90/131/1
f 88/123/2 87/111/2 86/46/2 85/74/2
f 88/233/6 85/234/6 89/211/6 90/213/6
f 85/233/3 86/234/3 53/211/3 89/213/3
f 62/123/1 95/111/1 96/46/1 63/74/1
f 94/123/2 93/111/2 92/46/2 91/74/2
f 92/235/5 93/236/5 96/214/5 95/209/5
f 91/235/3 92/236/3 95/214/3 62/209/3
f 101/25/1 102/34/1 103/35/1 104/31/1
f 100/12/2 99/36/2 98/37/2 97/21/2
f 100/13/6 97/14/6 101/15/6 104/11/6
f 98/14/5 99/16/5 103/17/5 102/15/5
f 99/2/4 100/3/4 104/4/4 103/1/4
f 109/102/1 110/128/1 111/129/1 112/13/1
f 108/73/2 107/130/2 106/131/2 105/124/2
f 108/78/6 105/87/6 109/85/6 112/83/6
f 106/85/5 107/88/5 111/89/5 110/86/5
f 107/5/4 108/6/4 112/7/4 111/2/4
f 117/123/1 89/111/1 90/46/1 118/74/1
f 116/123/2 115/111/2 114/46/2 113/74/2
f 116/240/6 113/241/6 117/238/6 118/237/6
f 113/240/3 114/241/3 89/238/3 117/237/3
f 95/123/1 123/111/1 124/46/1 96/74/1
f 122/130/2 121/101/2 120/184/2 119/131/2
f 120/242/5 121/243/5 124/241/5 123/240/5
f 119/242/3 120/243/3 123/241/3 95/240/3
f 129/123/1 130/111/1 131/46/1 132/74/1
f 128/130/2 127/101/2 126/184/2 125/131/2
f 128/237/6 125/238/6 129/239/6 132/228/6
f 126/237/5 127/238/5 131/239/5 130/228/5
f 125/237/3 126/238/3 130/239/3 129/228/3
f 137/123/1 138/111/1 139/46/1 140/74/1
f 136/130/2 135/101/2 134/184/2 133/131/2
f 136/211/6 133/213/6 137/233/6 140/234/6
f 134/211/5 135/213/5 139/233/5 138/234/5
f 133/211/3 134/213/3 138/233/3 137/234/3
f 143/24/1 144/27/1 145/7/1 146/3/1
f 142/60/6 27/90/6 143/29/6 146/59/6
f 27/197/3 28/198/3 144/195/3 143/193/3
f 141/198/4 142/197/4 146/193/4 145/195/4
f 149/24/1 150/27/1 151/7/1 152/3/1
f 36/123/5 147/111/5 151/46/5 150/74/5
f 35/200/3 36/201/3 150/202/3 149/199/3
f 147/201/4 148/200/4 152/199/4 151/202/4
f 154/130/1 155/101/1 156/184/1 157/131/1
f 30/90/6 142/51/6 154/55/6 157/61/6
f 153/51/5 41/90/5 156/61/5 155/55/5
f 142/98/3 153/127/3 155/132/3 154/99/3
f 41/133/4 30/134/4 157/135/4 156/122/4
f 159/123/1 160/111/1 161/46/1 162/74/1
f 46/91/6 158/92/6 159/93/6 162/78/6
f 147/92/5 37/91/5 161/78/5 160/93/5
f 158/134/3 147/136/3 160/137/3 159/135/3
f 37/139/4 46/140/4 162/95/4 161/138/4
f 167/7/1 168/27/1 169/24/1 170/3/1
f 166/66/6 163/67/6 167/68/6 170/65/6
f 163/114/3 164/115/3 168/116/3 167/113/3
f 165/115/4 166/117/4 170/118/4 169/116/4
f 175/130/1 176/101/1 177/184/1 178/131/1
f 172/69/5 173/70/5 177/67/5 176/66/5
f 171/117/3 172/119/3 176/120/3 175/118/3
f 173/119/4 174/121/4 178/122/4 177/120/4
f 183/130/1 184/101/1 168/184/1 167/131/1
f 182/123/2 181/111/2 180/46/2 179/74/2
f 182/95/6 179/141/6 183/142/6 167/96/6
f 189/123/1 190/111/1 176/46/1 175/74/1
f 188/130/2 187/101/2 186/184/2 185/131/2
f 186/140/5 187/143/5 176/141/5 190/95/5
f 157/123/1 156/111/1 195/46/1 196/74/1
f 194/123/2 193/111/2 192/46/2 191/74/2
f 194/165/6 191/166/6 157/167/6 196/157/6
f 193/165/4 194/166/4 196/167/4 195/157/4
f 162/123/1 161/111/1 201/46/1 202/74/1
f 200/123/2 199/111/2 198/46/2 197/74/2
f 198/166/5 199/168/5 201/169/5 161/167/5
f 199/166/4 200/168/4 202/169/4 201/167/4
f 170/168/1 169/170/1 206/171/1 207/169/1
f 205/145/2 204/172/2 203/173/2 193/158/2
f 205/28/6 193/29/6 170/30/6 207/27/6
f 204/141/4 205/144/4 207/126/4 206/142/4
f 178/172/1 177/174/1 211/159/1 212/173/1
f 210/175/2 209/176/2 200/53/2 208/147/2
f 200/31/5 209/32/5 211/33/5 177/26/5
f 209/143/4 210/145/4 212/144/4 211/141/4
f 217/7/1 218/27/1 219/24/1 220/3/1
f 216/3/2 215/24/2 214/27/2 213/7/2
f 216/94/6 213/95/6 217/96/6 220/85/6
f 215/127/4 216/146/4 220/147/4 219/132/4
f 225/3/1 226/24/1 227/27/1 228/7/1
f 224/7/2 223/27/2 222/24/2 221/3/2
f 222/97/5 223/98/5 227/99/5 226/89/5
f 223/148/4 224/149/4 228/146/4 227/127/4
f 231/106/1 232/150/1 228/151/1 219/107/1
f 215/152/2 224/153/2 230/154/2 229/114/2
f 224/18/4 215/19/4 219/20/4 228/10/4
f 237/123/1 132/111/1 238/46/1 143/74/1
f 236/130/2 235/101/2 234/184/2 233/131/2
f 236/3/6 233/24/6 237/27/6 143/7/6
f 233/3/3 234/24/3 132/27/3 237/7/3
f 139/123/1 243/111/1 150/46/1 244/74/1
f 242/130/2 241/101/2 240/184/2 239/131/2
f 240/3/5 241/24/5 150/27/5 243/7/5
f 239/3/3 240/24/3 243/27/3 139/7/3
f 196/130/1 195/101/1 249/184/1 250/131/1
f 248/169/2 247/167/2 246/166/2 245/168/2
f 248/45/6 245/46/6 196/47/6 250/33/6
f 247/70/4 248/79/4 250/83/4 249/82/4
f 202/177/1 201/178/1 255/176/1 256/175/1
f 254/179/2 253/180/2 252/181/2 251/154/2
f 252/49/5 253/50/5 255/51/5 201/48/5
f 253/63/4 254/203/4 256/199/4 255/64/4
f 249/130/1 260/101/1 261/184/1 262/131/1
f 259/130/2 258/101/2 257/184/2 247/131/2
f 259/204/6 247/205/6 249/206/6 262/202/6
f 258/204/4 259/205/4 262/206/4 261/202/4
f 266/123/1 256/111/1 267/46/1 268/74/1
f 265/123/2 264/111/2 254/46/2 263/74/2
f 254/63/5 264/203/5 267/199/5 256/64/5
f 264/63/4 265/203/4 268/199/4 267/64/4
f 273/130/1 274/101/1 275/184/1 276/131/1
f 272/24/2 271/27/2 270/7/2 269/3/2
f 272/182/6 269/183/6 273/153/6 276/164/6
f 270/185/5 271/186/5 275/163/5 274/184/5
f 271/111/4 272/112/4 276/113/4 275/47/4
f 71/130/1 70/101/1 184/184/1 183/131/1
f 277/215/6 238/216/6 71/205/6 183/204/6
f 84/123/1 83/111/1 190/46/1 189/74/1
f 244/216/5 278/217/5 190/207/5 83/205/5
f 283/34/1 284/100/1 285/101/1 286/72/1
f 282/103/2 281/104/2 280/105/2 279/102/2
f 282/130/6 279/101/6 283/184/6 286/131/6
f 280/240/5 281/241/5 285/238/5 284/237/5
f 279/52/3 280/53/3 284/54/3 283/49/3
f 290/7/1 286/27/1 155/24/1 154/3/1
f 289/7/2 288/27/2 282/24/2 287/3/2
f 289/225/6 287/20/6 290/48/6 154/226/6
f 287/242/3 282/243/3 286/241/3 290/240/3
f 285/123/1 294/111/1 160/46/1 159/74/1
f 293/3/2 292/24/2 291/27/2 281/7/2
f 291/228/5 292/229/5 160/221/5 294/227/5
f 281/240/3 291/241/3 294/238/3 285/237/3
f 299/19/1 300/40/1 301/65/1 302/52/1
f 298/40/2 297/19/2 296/52/2 295/65/2
f 298/130/6 295/101/6 299/184/6 302/131/6
f 296/27/5 297/24/5 301/3/5 300/7/5
f 295/24/3 296/27/3 300/7/3 299/3/3
f 306/130/1 307/101/1 302/184/1 12/131/1
f 305/130/6 303/101/6 306/184/6 12/131/6
f 303/130/3 304/101/3 307/184/3 306/131/3
f 311/90/1 312/29/1 20/59/1 301/60/1
f 309/130/5 310/101/5 20/184/5 312/131/5
f 308/90/3 309/29/3 312/59/3 311/60/3
f 313/130/1 314/101/1 315/184/1 316/131/1
f 302/130/6 307/101/6 313/184/6 316/131/6
f 311/130/5 301/101/5 315/184/5 314/131/5
f 307/130/3 311/101/3 314/184/3 313/131/3
f 319/204/1 74/205/1 77/206/1 320/202/1
f 318/206/6 317/205/6 319/204/6 320/202/6
f 317/130/3 13/101/3 74/184/3 319/131/3
f 75/205/1 323/207/1 324/191/1 76/206/1
f 321/205/5 322/206/5 324/191/5 323/207/5
f 19/123/3 321/111/3 323/46/3 75/74/3
f 328/218/1 329/219/1 320/209/1 330/208/1
f 327/209/6 325/219/6 328/218/6 330/208/6
f 325/123/3 326/111/3 329/46/3 328/74/3
f 334/220/1 335/221/1 336/212/1 324/211/1
f 332/212/5 333/221/5 336/220/5 335/211/5
f 331/130/3 332/101/3 335/184/3 334/131/3
f 338/233/1 339/234/1 330/211/1 101/213/1
f 15/211/6 184/234/6 338/233/6 101/213/6
f 184/123/3 337/111/3 339/46/3 338/74/3
f 341/87/1 342/93/1 102/138/1 336/94/1
f 189/138/5 21/93/5 102/87/5 342/94/5
f 340/130/3 189/101/3 342/184/3 341/131/3
f 345/24/1 346/27/1 347/7/1 348/3/1
f 273/130/6 343/101/6 345/184/6 348/131/6
f 344/123/5 274/111/5 347/46/5 346/74/5
f 274/27/4 273/24/4 348/3/4 347/7/4
f 349/56/1 350/57/1 351/58/1 352/55/1
f 345/104/6 316/106/6 349/107/6 352/105/6
f 315/44/5 346/109/5 351/110/5 350/108/5
f 316/24/3 315/27/3 350/7/3 349/3/3
f 346/27/4 345/24/4 352/3/4 351/7/4
