#created with MagicaVoxel and VoxelOptimizer  - v:44 - f:31
o Mdl_HumanKeeper_6
mtllib Mdl_HumanKeeper_6.mtl
vn 0 1 0
vn 0 -1 0
vn -1 0 0
vn 1 0 0
vn 0 0 1
vn 0 0 -1
v -2 -5 -1
v -2 -5 1
v 2 -5 1
v 2 -5 -1
v -2 4 -1
v -2 4 1
v 2 4 1
v 2 4 -1
v -1 -5 -2
v -1 -5 -1
v 1 -5 -1
v 1 -5 -2
v -1 4 -2
v -1 4 -1
v 1 4 -1
v 1 4 -2
v -1 -5 1
v -1 -5 2
v 1 -5 2
v 1 -5 1
v -1 4 1
v -1 4 2
v 1 4 2
v 1 4 1
v -1 1 -3
v -1 1 -2
v 1 1 -2
v 1 1 -3
v -1 3 -3
v -1 3 -2
v 1 3 -2
v 1 3 -3
v -1 1 2
v -1 1 3
v 1 1 3
v 1 1 2
v -1 2 2
v -1 2 3
v 1 2 3
v 1 2 2
v -1 5 -1
v -1 5 1
v 1 5 1
v 1 5 -1
vt 0.0000 1.0000
vt 0.0000 0.4375
vt 0.2500 0.4375
vt 0.2500 1.0000
vt 0.5000 0.4375
vt 0.5000 1.0000
vt 0.6250 0.4375
vt 0.6250 1.0000
vt 0.6875 0.4375
vt 0.6875 1.0000
vt 0.6875 0.9375
vt 0.7500 0.9375
vt 0.7500 1.0000
vt 0.8125 0.9375
vt 0.8125 1.0000
usemtl x
f 5/11/1 6/12/1 7/13/1 8/10/1
f 4/12/2 3/14/2 2/15/2 1/13/2
f 4/2/6 1/3/6 5/4/6 8/1/6
f 2/3/5 3/5/5 7/6/5 6/4/5
f 1/5/3 2/7/3 6/8/3 5/6/3
f 3/5/4 4/7/4 8/8/4 7/6/4
f 13/11/1 14/12/1 15/13/1 16/10/1
f 12/12/2 11/14/2 10/15/2 9/13/2
f 12/5/6 9/7/6 13/8/6 16/6/6
f 9/7/3 10/9/3 14/10/3 13/8/3
f 11/7/4 12/9/4 16/10/4 15/8/4
f 21/11/1 22/12/1 23/13/1 24/10/1
f 20/12/2 19/14/2 18/15/2 17/13/2
f 18/5/5 19/7/5 23/8/5 22/6/5
f 17/7/3 18/9/3 22/10/3 21/8/3
f 19/7/4 20/9/4 24/10/4 23/8/4
f 29/11/1 30/12/1 31/13/1 32/10/1
f 28/11/2 27/12/2 26/13/2 25/10/2
f 28/11/6 25/12/6 29/13/6 32/10/6
f 25/11/3 26/12/3 30/13/3 29/10/3
f 27/11/4 28/12/4 32/13/4 31/10/4
f 37/11/1 38/12/1 39/13/1 40/10/1
f 36/11/2 35/12/2 34/13/2 33/10/2
f 34/11/5 35/12/5 39/13/5 38/10/5
f 33/11/3 34/12/3 38/13/3 37/10/3
f 35/11/4 36/12/4 40/13/4 39/10/4
f 41/11/1 42/12/1 43/13/1 44/10/1
f 15/11/6 14/12/6 41/13/6 44/10/6
f 21/11/5 24/12/5 43/13/5 42/10/5
f 14/11/3 21/12/3 42/13/3 41/10/3
f 24/11/4 15/12/4 44/13/4 43/10/4
