#created with MagicaVoxel and VoxelOptimizer  - v:60 - f:42
o Mdl_HumanKeeper_4
mtllib Mdl_HumanKeeper_4.mtl
vn 0 1 0
vn 0 -1 0
vn -1 0 0
vn 1 0 0
vn 0 0 1
vn 0 0 -1
v -4 -1.5 -1.5
v -4 -1.5 1.5
v 4 -1.5 1.5
v 4 -1.5 -1.5
v -4 -0.5 -1.5
v -4 -0.5 1.5
v 4 -0.5 1.5
v 4 -0.5 -1.5
v -2 -1.5 -2.5
v -2 -1.5 -1.5
v 3 -1.5 -1.5
v 3 -1.5 -2.5
v -2 0.5 -2.5
v -2 0.5 -1.5
v 3 0.5 -1.5
v 3 0.5 -2.5
v -2 -1.5 1.5
v -2 -1.5 2.5
v 3 -1.5 2.5
v 3 -1.5 1.5
v -2 0.5 1.5
v -2 0.5 2.5
v 3 0.5 2.5
v 3 0.5 1.5
v -3 -0.5 -1.5
v -3 -0.5 1.5
v -3 0.5 -1.5
v -3 0.5 1.5
v 4 0.5 1.5
v 4 0.5 -1.5
v -1 0.5 -1.5
v -1 0.5 -0.5
v 4 0.5 -0.5
v -1 1.5 -1.5
v -1 1.5 -0.5
v 4 1.5 -0.5
v 4 1.5 -1.5
v -1 0.5 0.5
v -1 0.5 1.5
v 4 0.5 0.5
v -1 1.5 0.5
v -1 1.5 1.5
v 4 1.5 1.5
v 4 1.5 0.5
v 0 0.5 -2.5
v 0 0.5 -1.5
v 0 1.5 -2.5
v 0 1.5 -1.5
v 3 1.5 -1.5
v 3 1.5 -2.5
v 0 0.5 -0.5
v 0 0.5 0.5
v 0 1.5 -0.5
v 0 1.5 0.5
v 0 0.5 1.5
v 0 0.5 2.5
v 0 1.5 1.5
v 0 1.5 2.5
v 3 1.5 2.5
v 3 1.5 1.5
vt 0 1
vt 0 0
vt 1 0
vt 1 1
usemtl x
f 5/2/1 6/3/1 7/4/1 8/1/1
f 4/2/2 3/3/2 2/4/2 1/1/2
f 4/2/6 1/3/6 5/4/6 8/1/6
f 2/2/5 3/3/5 7/4/5 6/1/5
f 1/2/3 2/3/3 6/4/3 5/1/3
f 3/2/4 4/3/4 8/4/4 7/1/4
f 13/2/1 14/3/1 15/4/1 16/1/1
f 12/2/2 11/3/2 10/4/2 9/1/2
f 12/2/6 9/3/6 13/4/6 16/1/6
f 9/2/3 10/3/3 14/4/3 13/1/3
f 11/2/4 12/3/4 16/4/4 15/1/4
f 21/2/1 22/3/1 23/4/1 24/1/1
f 20/2/2 19/3/2 18/4/2 17/1/2
f 18/2/5 19/3/5 23/4/5 22/1/5
f 17/2/3 18/3/3 22/4/3 21/1/3
f 19/2/4 20/3/4 24/4/4 23/1/4
f 27/2/1 28/3/1 29/4/1 30/1/1
f 8/2/6 25/3/6 27/4/6 30/1/6
f 26/2/5 7/3/5 29/4/5 28/1/5
f 25/2/3 26/3/3 28/4/3 27/1/3
f 7/2/4 8/3/4 30/4/4 29/1/4
f 34/2/1 35/3/1 36/4/1 37/1/1
f 30/2/6 31/3/6 34/4/6 37/1/6
f 32/2/5 33/3/5 36/4/5 35/1/5
f 31/2/3 32/3/3 35/4/3 34/1/3
f 33/2/4 30/3/4 37/4/4 36/1/4
f 41/2/1 42/3/1 43/4/1 44/1/1
f 40/2/6 38/3/6 41/4/6 44/1/6
f 39/2/5 29/3/5 43/4/5 42/1/5
f 38/2/3 39/3/3 42/4/3 41/1/3
f 29/2/4 40/3/4 44/4/4 43/1/4
f 47/2/1 48/3/1 49/4/1 50/1/1
f 16/2/6 45/3/6 47/4/6 50/1/6
f 45/2/3 46/3/3 48/4/3 47/1/3
f 15/2/4 16/3/4 50/4/4 49/1/4
f 53/2/1 54/3/1 44/4/1 36/1/1
f 51/2/3 52/3/3 54/4/3 53/1/3
f 40/2/4 33/3/4 36/4/4 44/1/4
f 57/2/1 58/3/1 59/4/1 60/1/1
f 56/2/5 23/3/5 59/4/5 58/1/5
f 55/2/3 56/3/3 58/4/3 57/1/3
f 23/2/4 24/3/4 60/4/4 59/1/4
