#created with MagicaVoxel and VoxelOptimizer  - v:24 - f:16
o Mdl_HumanKeeper_3
mtllib Mdl_HumanKeeper_3.mtl
vn 0 1 0
vn 0 -1 0
vn -1 0 0
vn 1 0 0
vn 0 0 1
vn 0 0 -1
v -2.5 -4.5 -0.5
v -2.5 -4.5 0.5
v 2.5 -4.5 0.5
v 2.5 -4.5 -0.5
v -2.5 4.5 -0.5
v -2.5 4.5 0.5
v 2.5 4.5 0.5
v 2.5 4.5 -0.5
v -1.5 -4.5 -1.5
v -1.5 -4.5 -0.5
v 1.5 -4.5 -0.5
v 1.5 -4.5 -1.5
v -1.5 4.5 -1.5
v -1.5 4.5 -0.5
v 1.5 4.5 -0.5
v 1.5 4.5 -1.5
v -1.5 -4.5 0.5
v -1.5 -4.5 1.5
v 1.5 -4.5 1.5
v 1.5 -4.5 0.5
v -1.5 4.5 0.5
v -1.5 4.5 1.5
v 1.5 4.5 1.5
v 1.5 4.5 0.5
vt 0 1
vt 0 0
vt 1 0
vt 1 1
usemtl x
f 5/2/1 6/3/1 7/4/1 8/1/1
f 4/2/2 3/3/2 2/4/2 1/1/2
f 4/2/6 1/3/6 5/4/6 8/1/6
f 2/2/5 3/3/5 7/4/5 6/1/5
f 1/2/3 2/3/3 6/4/3 5/1/3
f 3/2/4 4/3/4 8/4/4 7/1/4
f 13/2/1 14/3/1 15/4/1 16/1/1
f 12/2/2 11/3/2 10/4/2 9/1/2
f 12/2/6 9/3/6 13/4/6 16/1/6
f 9/2/3 10/3/3 14/4/3 13/1/3
f 11/2/4 12/3/4 16/4/4 15/1/4
f 21/2/1 22/3/1 23/4/1 24/1/1
f 20/2/2 19/3/2 18/4/2 17/1/2
f 18/2/5 19/3/5 23/4/5 22/1/5
f 17/2/3 18/3/3 22/4/3 21/1/3
f 19/2/4 20/3/4 24/4/4 23/1/4
