#created with MagicaVoxel and VoxelOptimizer  - v:320 - f:218
o Bush_1
mtllib Bush_1.mtl
vn 0 1 0
vn 0 -1 0
vn -1 0 0
vn 1 0 0
vn 0 0 1
vn 0 0 -1
v -28 -18 -14
v -28 -18 10
v 28 -18 10
v 28 -18 -14
v -28 14 -14
v -28 14 10
v 28 14 10
v 28 14 -14
v -12 -18 10
v -12 -18 14
v -8 -18 14
v -8 -18 10
v -12 14 10
v -12 14 14
v -8 14 14
v -8 14 10
v -4 -18 10
v -4 -18 14
v 4 -18 14
v 4 -18 10
v -4 14 10
v -4 14 14
v 4 14 14
v 4 14 10
v 8 -18 10
v 8 -18 14
v 12 -18 14
v 12 -18 10
v 8 18 10
v 8 18 14
v 12 18 14
v 12 18 10
v 16 -18 10
v 16 -18 14
v 24 -18 14
v 24 -18 10
v 16 14 10
v 16 14 14
v 24 14 14
v 24 14 10
v 28 -18 -6
v 32 -18 10
v 32 -18 -6
v 28 14 -6
v 32 14 10
v 32 14 -6
v -32 -14 -10
v -32 -14 -2
v -28 -14 -2
v -28 -14 -10
v -32 14 -10
v -32 14 -2
v -28 14 -2
v -28 14 -10
v -32 -14 2
v -32 -14 6
v -28 -14 6
v -28 -14 2
v -32 14 2
v -32 14 6
v -28 14 6
v -28 14 2
v -16 -14 10
v -16 -14 14
v -12 -14 14
v -12 -14 10
v -16 14 10
v -16 14 14
v -8 -14 10
v -8 -14 14
v -4 -14 14
v -4 -14 10
v 4 -14 10
v 4 -14 14
v 8 -14 14
v 8 -14 10
v 8 14 14
v 8 14 10
v 24 -14 10
v 24 -14 14
v 28 -14 14
v 28 -14 10
v 28 14 14
v 28 -14 -10
v 28 -14 -6
v 32 -14 -6
v 32 -14 -10
v 28 10 -10
v 28 10 -6
v 32 10 -6
v 32 10 -10
v -32 -10 -2
v -32 -10 2
v -28 -10 2
v -28 -10 -2
v -20 -10 10
v -20 -10 14
v -16 -10 14
v -16 -10 10
v -20 14 10
v -20 14 14
v 4 -10 -18
v 4 -10 -14
v 8 -10 -14
v 8 -10 -18
v 4 -2 -18
v 4 -2 -14
v 8 -2 -14
v 8 -2 -18
v 12 -10 10
v 12 -10 14
v 16 -10 14
v 16 -10 10
v 12 14 10
v 12 14 14
v 24 -10 -18
v 24 -10 -14
v 28 -10 -14
v 28 -10 -18
v 24 -2 -18
v 24 -2 -14
v 28 -2 -14
v 28 -2 -18
v -32 -6 6
v -32 -6 10
v -28 -6 10
v -28 -6 6
v -32 14 10
v -28 -6 -18
v -28 -6 -14
v -20 -6 -14
v -20 -6 -18
v -28 -2 -18
v -28 -2 -14
v -20 -2 -14
v -20 -2 -18
v -28 -6 14
v -20 -6 14
v -20 -6 10
v -28 14 14
v -16 -6 14
v -16 -6 18
v -12 -6 18
v -12 -6 14
v -16 2 14
v -16 2 18
v -12 2 18
v -12 2 14
v -24 -2 -14
v -24 -2 -18
v -28 10 -18
v -28 10 -14
v -24 10 -14
v -24 10 -18
v -16 -2 -18
v -16 -2 -14
v -16 10 -18
v -16 10 -14
v 4 10 -14
v 4 10 -18
v -12 -2 14
v -12 -2 18
v -4 -2 18
v -4 -2 14
v -12 6 14
v -12 6 18
v -4 6 18
v -4 6 14
v 12 -2 -18
v 12 -2 -14
v 20 -2 -14
v 20 -2 -18
v 12 10 -18
v 12 10 -14
v 20 10 -14
v 20 10 -18
v 28 -2 -10
v 32 -2 -10
v 32 -2 -14
v 28 10 -14
v 32 10 -14
v -32 2 -14
v -32 2 -10
v -28 2 -10
v -28 2 -14
v -32 10 -14
v -32 10 -10
v -28 10 -10
v -24 2 -18
v -24 2 -14
v -16 2 -14
v -16 2 -18
v 4 2 -18
v 4 2 -14
v 8 2 -14
v 8 2 -18
v 8 10 -14
v 8 10 -18
v 8 2 14
v 8 2 18
v 20 2 18
v 20 2 14
v 8 10 14
v 8 10 18
v 20 10 18
v 20 10 14
v 20 2 -18
v 20 2 -14
v 28 2 -14
v 28 2 -18
v 28 10 -18
v -16 6 14
v -16 6 18
v -16 14 18
v -12 14 18
v 4 6 14
v 4 6 18
v 8 6 18
v 8 6 14
v 4 14 18
v 8 14 18
v -8 10 -18
v -8 10 -14
v -8 14 -18
v -8 14 -14
v 4 14 -14
v 4 14 -18
v 12 10 18
v 12 10 14
v 12 14 18
v 16 10 -14
v 16 10 -18
v 12 14 -18
v 12 14 -14
v 16 14 -14
v 16 14 -18
v 24 10 -18
v 24 10 -14
v 24 14 -18
v 24 14 -14
v 28 14 -18
v -24 14 -14
v -24 14 -6
v -20 14 -6
v -20 14 -14
v -24 18 -14
v -24 18 -6
v -20 18 -6
v -20 18 -14
v -24 14 -2
v -24 14 2
v 0 14 2
v 0 14 -2
v -24 18 -2
v -24 18 2
v 0 18 2
v 0 18 -2
v -16 14 -14
v -16 14 -2
v -8 14 -2
v -16 18 -14
v -16 18 -2
v -8 18 -2
v -8 18 -14
v -16 14 2
v -16 14 6
v -12 14 6
v -12 14 2
v -16 18 2
v -16 18 6
v -12 18 6
v -12 18 2
v -8 14 -6
v -4 14 -6
v -4 14 -14
v -8 18 -6
v -4 18 -6
v -4 18 -14
v -4 14 -10
v 0 14 -6
v 0 14 -10
v -4 18 -10
v 0 18 -6
v 0 18 -10
v 4 14 -10
v 4 14 -6
v 8 14 -6
v 8 14 -10
v 4 18 -10
v 4 18 -6
v 8 18 -6
v 8 18 -10
v 8 14 -2
v 16 14 -2
v 8 18 -2
v 16 18 10
v 16 18 -2
v 16 14 -6
v 24 14 -2
v 24 14 -6
v 16 18 -6
v 24 18 -2
v 24 18 -6
v 16 14 2
v 20 14 10
v 20 14 2
v 16 18 2
v 20 18 10
v 20 18 2
v 20 14 -14
v 20 14 -6
v 20 18 -14
v 20 18 -6
v 24 18 -14
v 20 14 -2
v 28 14 2
v 28 14 -2
v 20 18 -2
v 28 18 2
v 28 18 -2
vt 0 1
vt 0 0
vt 1 0
vt 1 1
usemtl x
f 5/2/1 6/3/1 7/4/1 8/1/1
f 4/2/2 3/3/2 2/4/2 1/1/2
f 4/2/6 1/3/6 5/4/6 8/1/6
f 2/2/5 3/3/5 7/4/5 6/1/5
f 1/2/3 2/3/3 6/4/3 5/1/3
f 3/2/4 4/3/4 8/4/4 7/1/4
f 13/2/1 14/3/1 15/4/1 16/1/1
f 12/2/2 11/3/2 10/4/2 9/1/2
f 10/2/5 11/3/5 15/4/5 14/1/5
f 9/2/3 10/3/3 14/4/3 13/1/3
f 11/2/4 12/3/4 16/4/4 15/1/4
f 21/2/1 22/3/1 23/4/1 24/1/1
f 20/2/2 19/3/2 18/4/2 17/1/2
f 18/2/5 19/3/5 23/4/5 22/1/5
f 17/2/3 18/3/3 22/4/3 21/1/3
f 19/2/4 20/3/4 24/4/4 23/1/4
f 29/2/1 30/3/1 31/4/1 32/1/1
f 28/2/2 27/3/2 26/4/2 25/1/2
f 26/2/5 27/3/5 31/4/5 30/1/5
f 25/2/3 26/3/3 30/4/3 29/1/3
f 27/2/4 28/3/4 32/4/4 31/1/4
f 37/2/1 38/3/1 39/4/1 40/1/1
f 36/2/2 35/3/2 34/4/2 33/1/2
f 34/2/5 35/3/5 39/4/5 38/1/5
f 33/2/3 34/3/3 38/4/3 37/1/3
f 35/2/4 36/3/4 40/4/4 39/1/4
f 44/2/1 7/3/1 45/4/1 46/1/1
f 43/2/2 42/3/2 3/4/2 41/1/2
f 43/2/6 41/3/6 44/4/6 46/1/6
f 3/2/5 42/3/5 45/4/5 7/1/5
f 42/2/4 43/3/4 46/4/4 45/1/4
f 51/2/1 52/3/1 53/4/1 54/1/1
f 50/2/2 49/3/2 48/4/2 47/1/2
f 50/2/6 47/3/6 51/4/6 54/1/6
f 48/2/5 49/3/5 53/4/5 52/1/5
f 47/2/3 48/3/3 52/4/3 51/1/3
f 59/2/1 60/3/1 61/4/1 62/1/1
f 58/2/2 57/3/2 56/4/2 55/1/2
f 58/2/6 55/3/6 59/4/6 62/1/6
f 56/2/5 57/3/5 61/4/5 60/1/5
f 55/2/3 56/3/3 60/4/3 59/1/3
f 67/2/1 68/3/1 14/4/1 13/1/1
f 66/2/2 65/3/2 64/4/2 63/1/2
f 64/2/5 65/3/5 14/4/5 68/1/5
f 63/2/3 64/3/3 68/4/3 67/1/3
f 16/2/1 15/3/1 22/4/1 21/1/1
f 72/2/2 71/3/2 70/4/2 69/1/2
f 70/2/5 71/3/5 22/4/5 15/1/5
f 24/2/1 23/3/1 77/4/1 78/1/1
f 76/2/2 75/3/2 74/4/2 73/1/2
f 74/2/5 75/3/5 77/4/5 23/1/5
f 40/2/1 39/3/1 83/4/1 7/1/1
f 82/2/2 81/3/2 80/4/2 79/1/2
f 80/2/5 81/3/5 83/4/5 39/1/5
f 81/2/4 82/3/4 7/4/4 83/1/4
f 88/2/1 89/3/1 90/4/1 91/1/1
f 87/2/2 86/3/2 85/4/2 84/1/2
f 87/2/6 84/3/6 88/4/6 91/1/6
f 86/2/4 87/3/4 91/4/4 90/1/4
f 52/2/1 59/3/1 62/4/1 53/1/1
f 95/2/2 94/3/2 93/4/2 92/1/2
f 92/2/3 93/3/3 59/4/3 52/1/3
f 100/2/1 101/3/1 68/4/1 67/1/1
f 99/2/2 98/3/2 97/4/2 96/1/2
f 97/2/5 98/3/5 68/4/5 101/1/5
f 96/2/3 97/3/3 101/4/3 100/1/3
f 106/2/1 107/3/1 108/4/1 109/1/1
f 105/2/2 104/3/2 103/4/2 102/1/2
f 105/2/6 102/3/6 106/4/6 109/1/6
f 102/2/3 103/3/3 107/4/3 106/1/3
f 104/2/4 105/3/4 109/4/4 108/1/4
f 114/2/1 115/3/1 38/4/1 37/1/1
f 113/2/2 112/3/2 111/4/2 110/1/2
f 111/2/5 112/3/5 38/4/5 115/1/5
f 120/2/1 121/3/1 122/4/1 123/1/1
f 119/2/2 118/3/2 117/4/2 116/1/2
f 119/2/6 116/3/6 120/4/6 123/1/6
f 116/2/3 117/3/3 121/4/3 120/1/3
f 118/2/4 119/3/4 123/4/4 122/1/4
f 60/2/1 128/3/1 6/4/1 61/1/1
f 127/2/2 126/3/2 125/4/2 124/1/2
f 125/2/5 126/3/5 6/4/5 128/1/5
f 124/2/3 125/3/3 128/4/3 60/1/3
f 133/2/1 134/3/1 135/4/1 136/1/1
f 132/2/2 131/3/2 130/4/2 129/1/2
f 132/2/6 129/3/6 133/4/6 136/1/6
f 129/2/3 130/3/3 134/4/3 133/1/3
f 131/2/4 132/3/4 136/4/4 135/1/4
f 6/2/1 140/3/1 101/4/1 100/1/1
f 139/2/2 138/3/2 137/4/2 126/1/2
f 137/2/5 138/3/5 101/4/5 140/1/5
f 126/2/3 137/3/3 140/4/3 6/1/3
f 145/2/1 146/3/1 147/4/1 148/1/1
f 144/2/2 143/3/2 142/4/2 141/1/2
f 142/2/5 143/3/5 147/4/5 146/1/5
f 141/2/3 142/3/3 146/4/3 145/1/3
f 143/2/4 144/3/4 148/4/4 147/1/4
f 151/2/1 152/3/1 153/4/1 154/1/1
f 150/2/6 133/3/6 151/4/6 154/1/6
f 133/2/3 134/3/3 152/4/3 151/1/3
f 149/2/4 150/3/4 154/4/4 153/1/4
f 157/2/1 158/3/1 159/4/1 160/1/1
f 106/2/2 107/3/2 156/4/2 155/1/2
f 106/2/6 155/3/6 157/4/6 160/1/6
f 155/2/3 156/3/3 158/4/3 157/1/3
f 107/2/4 106/3/4 160/4/4 159/1/4
f 165/2/1 166/3/1 167/4/1 168/1/1
f 164/2/2 163/3/2 162/4/2 161/1/2
f 162/2/5 163/3/5 167/4/5 166/1/5
f 161/2/3 162/3/3 166/4/3 165/1/3
f 163/2/4 164/3/4 168/4/4 167/1/4
f 173/2/1 174/3/1 175/4/1 176/1/1
f 172/2/2 171/3/2 170/4/2 169/1/2
f 172/2/6 169/3/6 173/4/6 176/1/6
f 169/2/3 170/3/3 174/4/3 173/1/3
f 171/2/4 172/3/4 176/4/4 175/1/4
f 180/2/1 88/3/1 91/4/1 181/1/1
f 179/2/2 178/3/2 177/4/2 122/1/2
f 179/2/6 122/3/6 180/4/6 181/1/6
f 178/2/4 179/3/4 181/4/4 91/1/4
f 186/2/1 187/3/1 188/4/1 152/1/1
f 185/2/2 184/3/2 183/4/2 182/1/2
f 185/2/6 182/3/6 186/4/6 152/1/6
f 182/2/3 183/3/3 187/4/3 186/1/3
f 154/2/1 153/3/1 158/4/1 157/1/1
f 192/2/2 191/3/2 190/4/2 189/1/2
f 192/2/6 189/3/6 154/4/6 157/1/6
f 160/2/1 159/3/1 197/4/1 198/1/1
f 196/2/2 195/3/2 194/4/2 193/1/2
f 196/2/6 193/3/6 160/4/6 198/1/6
f 195/2/4 196/3/4 198/4/4 197/1/4
f 203/2/1 204/3/1 205/4/1 206/1/1
f 202/2/2 201/3/2 200/4/2 199/1/2
f 200/2/5 201/3/5 205/4/5 204/1/5
f 199/2/3 200/3/3 204/4/3 203/1/3
f 201/2/4 202/3/4 206/4/4 205/1/4
f 176/2/1 175/3/1 180/4/1 211/1/1
f 210/2/2 209/3/2 208/4/2 207/1/2
f 210/2/6 207/3/6 176/4/6 211/1/6
f 209/2/4 210/3/4 211/4/4 180/1/4
f 68/2/1 214/3/1 215/4/1 14/1/1
f 165/2/2 166/3/2 213/4/2 212/1/2
f 213/2/5 166/3/5 215/4/5 214/1/5
f 212/2/3 213/3/3 214/4/3 68/1/3
f 166/2/4 165/3/4 14/4/4 215/1/4
f 23/2/1 220/3/1 221/4/1 77/1/1
f 219/2/2 218/3/2 217/4/2 216/1/2
f 217/2/5 218/3/5 221/4/5 220/1/5
f 216/2/3 217/3/3 220/4/3 23/1/3
f 224/2/1 225/3/1 226/4/1 227/1/1
f 160/2/6 222/3/6 224/4/6 227/1/6
f 222/2/3 223/3/3 225/4/3 224/1/3
f 159/2/4 160/3/4 227/4/4 226/1/4
f 77/2/1 221/3/1 230/4/1 115/1/1
f 204/2/5 228/3/5 230/4/5 221/1/5
f 228/2/4 229/3/4 115/4/4 230/1/4
f 233/2/1 234/3/1 235/4/1 236/1/1
f 232/2/6 173/3/6 233/4/6 236/1/6
f 173/2/3 174/3/3 234/4/3 233/1/3
f 231/2/4 232/3/4 236/4/4 235/1/4
f 239/2/1 240/3/1 8/4/1 241/1/1
f 211/2/6 237/3/6 239/4/6 241/1/6
f 237/2/3 238/3/3 240/4/3 239/1/3
f 180/2/4 211/3/4 241/4/4 8/1/4
f 246/2/1 247/3/1 248/4/1 249/1/1
f 245/2/6 242/3/6 246/4/6 249/1/6
f 243/2/5 244/3/5 248/4/5 247/1/5
f 242/2/3 243/3/3 247/4/3 246/1/3
f 244/2/4 245/3/4 249/4/4 248/1/4
f 254/2/1 255/3/1 256/4/1 257/1/1
f 253/2/6 250/3/6 254/4/6 257/1/6
f 251/2/5 252/3/5 256/4/5 255/1/5
f 250/2/3 251/3/3 255/4/3 254/1/3
f 252/2/4 253/3/4 257/4/4 256/1/4
f 261/2/1 262/3/1 263/4/1 264/1/1
f 225/2/6 258/3/6 261/4/6 264/1/6
f 258/2/3 259/3/3 262/4/3 261/1/3
f 260/2/4 225/3/4 264/4/4 263/1/4
f 269/2/1 270/3/1 271/4/1 272/1/1
f 266/2/5 267/3/5 271/4/5 270/1/5
f 265/2/3 266/3/3 270/4/3 269/1/3
f 267/2/4 268/3/4 272/4/4 271/1/4
f 264/2/1 276/3/1 277/4/1 278/1/1
f 275/2/6 225/3/6 264/4/6 278/1/6
f 273/2/5 274/3/5 277/4/5 276/1/5
f 274/2/4 275/3/4 278/4/4 277/1/4
f 282/2/1 277/3/1 283/4/1 284/1/1
f 281/2/6 279/3/6 282/4/6 284/1/6
f 274/2/5 280/3/5 283/4/5 277/1/5
f 280/2/4 281/3/4 284/4/4 283/1/4
f 289/2/1 290/3/1 291/4/1 292/1/1
f 288/2/6 285/3/6 289/4/6 292/1/6
f 286/2/5 287/3/5 291/4/5 290/1/5
f 285/2/3 286/3/3 290/4/3 289/1/3
f 287/2/4 288/3/4 292/4/4 291/1/4
f 295/2/1 29/3/1 296/4/1 297/1/1
f 294/2/6 293/3/6 295/4/6 297/1/6
f 78/2/5 37/3/5 296/4/5 29/1/5
f 293/2/3 78/3/3 29/4/3 295/1/3
f 37/2/4 294/3/4 297/4/4 296/1/4
f 301/2/1 297/3/1 302/4/1 303/1/1
f 300/2/6 298/3/6 301/4/6 303/1/6
f 294/2/5 299/3/5 302/4/5 297/1/5
f 298/2/3 294/3/3 297/4/3 301/1/3
f 299/2/4 300/3/4 303/4/4 302/1/4
f 307/2/1 296/3/1 308/4/1 309/1/1
f 306/2/6 304/3/6 307/4/6 309/1/6
f 37/2/5 305/3/5 308/4/5 296/1/5
f 305/2/4 306/3/4 309/4/4 308/1/4
f 312/2/1 313/3/1 303/4/1 314/1/1
f 240/2/6 310/3/6 312/4/6 314/1/6
f 310/2/3 311/3/3 313/4/3 312/1/3
f 300/2/4 240/3/4 314/4/4 303/1/4
f 318/2/1 309/3/1 319/4/1 320/1/1
f 317/2/6 315/3/6 318/4/6 320/1/6
f 306/2/5 316/3/5 319/4/5 309/1/5
f 315/2/3 306/3/3 309/4/3 318/1/3
f 316/2/4 317/3/4 320/4/4 319/1/4
