# MagicaVoxel @ Ephtracy

# group
o 

# material
mtllib knight.mtl
usemtl palette

# normals
vn -1 0 0
vn 1 0 0
vn 0 0 1
vn 0 0 -1
vn 0 -1 0
vn 0 1 0

# texcoords
vt 0.505859 0.5
vt 0.982422 0.5
vt 0.986328 0.5
vt 0.990234 0.5

# verts
v -1.6 2.3 0
v -1.6 2.3 -0.1
v -1.6 3.2 0
v -1.6 3.2 -0.1
v -1.4 1.1 0
v -1.4 1.1 -0.1
v -1.4 2.3 0
v -1.4 2.3 -0.1
v -1.2 3 0
v -1.2 3 -0.1
v -1.2 3.2 0
v -1.2 3.2 -0.1
v -1 0.2 0
v -1 0.2 -0.1
v -1 1.1 0
v -1 1.1 -0.1
v -0.8 0 0
v -0.8 0 -0.1
v -0.8 0.2 0
v -0.8 0.2 -0.1
v -0.8 3 0
v -0.8 3 -0.1
v -0.8 3.2 0
v -0.8 3.2 -0.1
v -0.4 3 0
v -0.4 3 -0.1
v -0.4 3.2 0
v -0.4 3.2 -0.1
v -0.2 1.9 0
v -0.2 1.9 -0.1
v -0.2 2.1 0
v -0.2 2.1 -0.1
v 0.6 3 0
v 0.6 3 -0.1
v 0.6 3.2 0
v 0.6 3.2 -0.1
v 0.7 1.9 0
v 0.7 1.9 -0.1
v 0.7 2.1 0
v 0.7 2.1 -0.1
v 1 3 0
v 1 3 -0.1
v 1 3.2 0
v 1 3.2 -0.1
v 1.4 3 0
v 1.4 3 -0.1
v 1.4 3.2 0
v 1.4 3.2 -0.1
v -1.4 3 0
v -1.4 3 -0.1
v -1.4 3.2 0
v -1.4 3.2 -0.1
v -1 3 0
v -1 3 -0.1
v -1 3.2 0
v -1 3.2 -0.1
v -0.7 1.9 0
v -0.7 1.9 -0.1
v -0.7 2.1 0
v -0.7 2.1 -0.1
v -0.6 3 0
v -0.6 3 -0.1
v -0.6 3.2 0
v -0.6 3.2 -0.1
v 0.2 1.9 0
v 0.2 1.9 -0.1
v 0.2 2.1 0
v 0.2 2.1 -0.1
v 0.4 3 0
v 0.4 3 -0.1
v 0.4 3.2 0
v 0.4 3.2 -0.1
v 0.8 0 0
v 0.8 0 -0.1
v 0.8 0.2 0
v 0.8 0.2 -0.1
v 0.8 3 0
v 0.8 3 -0.1
v 0.8 3.2 0
v 0.8 3.2 -0.1
v 1 0.2 0
v 1 0.2 -0.1
v 1 1.1 0
v 1 1.1 -0.1
v 1.2 3 0
v 1.2 3 -0.1
v 1.2 3.2 0
v 1.2 3.2 -0.1
v 1.4 1.1 0
v 1.4 1.1 -0.1
v 1.4 2.3 0
v 1.4 2.3 -0.1
v 1.6 2.3 0
v 1.6 2.3 -0.1
v 1.6 3.2 0
v 1.6 3.2 -0.1
v -1.6 2.3 0
v -1.6 3.2 0
v -1.4 1.1 0
v -1.4 2.3 0
v -1.4 3 0
v -1.4 3.2 0
v -1.2 2.3 0
v -1.2 3 0
v -1.2 3.2 0
v -1 0.2 0
v -1 1.1 0
v -1 2.3 0
v -1 3 0
v -1 3.2 0
v -0.8 0 0
v -0.8 0.2 0
v -0.8 0.5 0
v -0.8 1.4 0
v -0.8 2.1 0
v -0.8 2.3 0
v -0.8 3 0
v -0.8 3.2 0
v -0.7 1.4 0
v -0.7 1.9 0
v -0.7 2.1 0
v -0.6 3 0
v -0.6 3.2 0
v -0.4 3 0
v -0.4 3.2 0
v -0.2 1.9 0
v -0.2 2.1 0
v -0.2 2.3 0
v -0.1 1.3 0
v -0.1 1.6 0
v 0 0.5 0
v 0 1.3 0
v 0 1.6 0
v 0 1.9 0
v 0.1 1.3 0
v 0.1 1.6 0
v 0.2 1.9 0
v 0.2 2.1 0
v 0.2 2.3 0
v 0.4 3 0
v 0.4 3.2 0
v 0.6 3 0
v 0.6 3.2 0
v 0.7 1.4 0
v 0.7 1.9 0
v 0.7 2.1 0
v 0.8 0 0
v 0.8 0.2 0
v 0.8 0.5 0
v 0.8 1.4 0
v 0.8 2.1 0
v 0.8 2.3 0
v 0.8 3 0
v 0.8 3.2 0
v 1 0.2 0
v 1 1.1 0
v 1 2.3 0
v 1 3 0
v 1 3.2 0
v 1.2 2.3 0
v 1.2 3 0
v 1.2 3.2 0
v 1.4 1.1 0
v 1.4 2.3 0
v 1.4 3 0
v 1.4 3.2 0
v 1.6 2.3 0
v 1.6 3.2 0
v -1.6 2.3 -0.1
v -1.6 3.2 -0.1
v -1.4 1.1 -0.1
v -1.4 2.3 -0.1
v -1.4 3 -0.1
v -1.4 3.2 -0.1
v -1.2 2.3 -0.1
v -1.2 3 -0.1
v -1.2 3.2 -0.1
v -1 0.2 -0.1
v -1 1.1 -0.1
v -1 2.3 -0.1
v -1 3 -0.1
v -1 3.2 -0.1
v -0.8 0 -0.1
v -0.8 0.2 -0.1
v -0.8 0.5 -0.1
v -0.8 1.4 -0.1
v -0.8 2.1 -0.1
v -0.8 2.3 -0.1
v -0.8 3 -0.1
v -0.8 3.2 -0.1
v -0.7 1.4 -0.1
v -0.7 1.9 -0.1
v -0.7 2.1 -0.1
v -0.6 3 -0.1
v -0.6 3.2 -0.1
v -0.4 3 -0.1
v -0.4 3.2 -0.1
v -0.2 1.9 -0.1
v -0.2 2.1 -0.1
v -0.2 2.3 -0.1
v -0.1 1.3 -0.1
v -0.1 1.6 -0.1
v 0 0.5 -0.1
v 0 1.3 -0.1
v 0 1.6 -0.1
v 0 1.9 -0.1
v 0.1 1.3 -0.1
v 0.1 1.6 -0.1
v 0.2 1.9 -0.1
v 0.2 2.1 -0.1
v 0.2 2.3 -0.1
v 0.4 3 -0.1
v 0.4 3.2 -0.1
v 0.6 3 -0.1
v 0.6 3.2 -0.1
v 0.7 1.4 -0.1
v 0.7 1.9 -0.1
v 0.7 2.1 -0.1
v 0.8 0 -0.1
v 0.8 0.2 -0.1
v 0.8 0.5 -0.1
v 0.8 1.4 -0.1
v 0.8 2.1 -0.1
v 0.8 2.3 -0.1
v 0.8 3 -0.1
v 0.8 3.2 -0.1
v 1 0.2 -0.1
v 1 1.1 -0.1
v 1 2.3 -0.1
v 1 3 -0.1
v 1 3.2 -0.1
v 1.2 2.3 -0.1
v 1.2 3 -0.1
v 1.2 3.2 -0.1
v 1.4 1.1 -0.1
v 1.4 2.3 -0.1
v 1.4 3 -0.1
v 1.4 3.2 -0.1
v 1.6 2.3 -0.1
v 1.6 3.2 -0.1
v -0.8 0 0
v 0.8 0 0
v -0.8 0 -0.1
v 0.8 0 -0.1
v -1 0.2 0
v -0.8 0.2 0
v 0.8 0.2 0
v 1 0.2 0
v -1 0.2 -0.1
v -0.8 0.2 -0.1
v 0.8 0.2 -0.1
v 1 0.2 -0.1
v -1.4 1.1 0
v -1 1.1 0
v 1 1.1 0
v 1.4 1.1 0
v -1.4 1.1 -0.1
v -1 1.1 -0.1
v 1 1.1 -0.1
v 1.4 1.1 -0.1
v -0.7 2.1 0
v -0.2 2.1 0
v 0.2 2.1 0
v 0.7 2.1 0
v -0.7 2.1 -0.1
v -0.2 2.1 -0.1
v 0.2 2.1 -0.1
v 0.7 2.1 -0.1
v -1.6 2.3 0
v -1.4 2.3 0
v 1.4 2.3 0
v 1.6 2.3 0
v -1.6 2.3 -0.1
v -1.4 2.3 -0.1
v 1.4 2.3 -0.1
v 1.6 2.3 -0.1
v -0.7 1.9 0
v -0.2 1.9 0
v 0.2 1.9 0
v 0.7 1.9 0
v -0.7 1.9 -0.1
v -0.2 1.9 -0.1
v 0.2 1.9 -0.1
v 0.7 1.9 -0.1
v -1.4 3 0
v -1.2 3 0
v -1 3 0
v -0.8 3 0
v -0.6 3 0
v -0.4 3 0
v 0.4 3 0
v 0.6 3 0
v 0.8 3 0
v 1 3 0
v 1.2 3 0
v 1.4 3 0
v -1.4 3 -0.1
v -1.2 3 -0.1
v -1 3 -0.1
v -0.8 3 -0.1
v -0.6 3 -0.1
v -0.4 3 -0.1
v 0.4 3 -0.1
v 0.6 3 -0.1
v 0.8 3 -0.1
v 1 3 -0.1
v 1.2 3 -0.1
v 1.4 3 -0.1
v -1.6 3.2 0
v -1.4 3.2 0
v -1.2 3.2 0
v -1 3.2 0
v -0.8 3.2 0
v -0.6 3.2 0
v -0.4 3.2 0
v 0.4 3.2 0
v 0.6 3.2 0
v 0.8 3.2 0
v 1 3.2 0
v 1.2 3.2 0
v 1.4 3.2 0
v 1.6 3.2 0
v -1.6 3.2 -0.1
v -1.4 3.2 -0.1
v -1.2 3.2 -0.1
v -1 3.2 -0.1
v -0.8 3.2 -0.1
v -0.6 3.2 -0.1
v -0.4 3.2 -0.1
v 0.4 3.2 -0.1
v 0.6 3.2 -0.1
v 0.8 3.2 -0.1
v 1 3.2 -0.1
v 1.2 3.2 -0.1
v 1.4 3.2 -0.1
v 1.6 3.2 -0.1

# faces
f 3/3/1 2/3/1 1/3/1
f 4/3/1 2/3/1 3/3/1
f 7/4/1 6/4/1 5/4/1
f 8/4/1 6/4/1 7/4/1
f 11/3/1 10/3/1 9/3/1
f 12/3/1 10/3/1 11/3/1
f 15/3/1 14/3/1 13/3/1
f 16/3/1 14/3/1 15/3/1
f 19/3/1 18/3/1 17/3/1
f 20/3/1 18/3/1 19/3/1
f 23/3/1 22/3/1 21/3/1
f 24/3/1 22/3/1 23/3/1
f 27/3/1 26/3/1 25/3/1
f 28/3/1 26/3/1 27/3/1
f 31/3/1 30/3/1 29/3/1
f 32/3/1 30/3/1 31/3/1
f 35/3/1 34/3/1 33/3/1
f 36/3/1 34/3/1 35/3/1
f 39/3/1 38/3/1 37/3/1
f 40/3/1 38/3/1 39/3/1
f 43/3/1 42/3/1 41/3/1
f 44/3/1 42/3/1 43/3/1
f 47/3/1 46/3/1 45/3/1
f 48/3/1 46/3/1 47/3/1
f 49/3/2 50/3/2 51/3/2
f 51/3/2 50/3/2 52/3/2
f 53/3/2 54/3/2 55/3/2
f 55/3/2 54/3/2 56/3/2
f 57/3/2 58/3/2 59/3/2
f 59/3/2 58/3/2 60/3/2
f 61/3/2 62/3/2 63/3/2
f 63/3/2 62/3/2 64/3/2
f 65/3/2 66/3/2 67/3/2
f 67/3/2 66/3/2 68/3/2
f 69/3/2 70/3/2 71/3/2
f 71/3/2 70/3/2 72/3/2
f 73/3/2 74/3/2 75/3/2
f 75/3/2 74/3/2 76/3/2
f 77/3/2 78/3/2 79/3/2
f 79/3/2 78/3/2 80/3/2
f 81/3/2 82/3/2 83/3/2
f 83/3/2 82/3/2 84/3/2
f 85/3/2 86/3/2 87/3/2
f 87/3/2 86/3/2 88/3/2
f 89/4/2 90/4/2 91/4/2
f 91/4/2 90/4/2 92/4/2
f 93/3/2 94/3/2 95/3/2
f 95/3/2 94/3/2 96/3/2
f 100/3/3 98/3/3 97/3/3
f 101/3/3 98/3/3 100/3/3
f 102/3/3 98/3/3 101/3/3
f 103/4/3 100/4/3 99/4/3
f 103/4/3 101/4/3 100/4/3
f 104/4/3 101/4/3 103/4/3
f 107/4/3 103/4/3 99/4/3
f 108/3/3 105/3/3 104/3/3
f 108/3/3 104/3/3 103/3/3
f 108/4/3 103/4/3 107/4/3
f 109/3/3 105/3/3 108/3/3
f 110/3/3 105/3/3 109/3/3
f 112/3/3 107/3/3 106/3/3
f 112/3/3 108/3/3 107/3/3
f 112/3/3 109/3/3 108/3/3
f 113/3/3 109/3/3 112/3/3
f 114/3/3 109/3/3 113/3/3
f 115/3/3 109/3/3 114/3/3
f 116/3/3 109/3/3 115/3/3
f 117/3/3 109/3/3 116/3/3
f 119/1/3 114/1/3 113/1/3
f 119/3/3 115/3/3 114/3/3
f 120/3/3 115/3/3 119/3/3
f 121/1/3 116/1/3 115/1/3
f 121/3/3 115/3/3 120/3/3
f 122/3/3 118/3/3 117/3/3
f 122/3/3 117/3/3 116/3/3
f 123/3/3 118/3/3 122/3/3
f 124/3/3 122/3/3 116/3/3
f 126/1/3 120/1/3 119/1/3
f 127/1/3 116/1/3 121/1/3
f 128/3/3 125/3/3 124/3/3
f 128/3/3 124/3/3 116/3/3
f 128/1/3 116/1/3 127/1/3
f 129/1/3 126/1/3 119/1/3
f 129/1/3 119/1/3 113/1/3
f 130/1/3 126/1/3 129/1/3
f 131/3/3 112/3/3 111/3/3
f 131/3/3 113/3/3 112/3/3
f 131/1/3 129/1/3 113/1/3
f 132/2/3 130/2/3 129/2/3
f 132/1/3 129/1/3 131/1/3
f 133/1/3 126/1/3 130/1/3
f 133/2/3 130/2/3 132/2/3
f 134/3/3 128/3/3 127/3/3
f 134/1/3 126/1/3 133/1/3
f 134/3/3 127/3/3 126/3/3
f 135/2/3 132/2/3 131/2/3
f 135/3/3 133/3/3 132/3/3
f 136/2/3 134/2/3 133/2/3
f 136/3/3 133/3/3 135/3/3
f 137/3/3 128/3/3 134/3/3
f 137/2/3 134/2/3 136/2/3
f 137/2/3 136/2/3 135/2/3
f 138/3/3 128/3/3 137/3/3
f 139/3/3 125/3/3 128/3/3
f 139/3/3 128/3/3 138/3/3
f 140/3/3 125/3/3 139/3/3
f 141/3/3 125/3/3 140/3/3
f 142/3/3 140/3/3 139/3/3
f 144/2/3 137/2/3 135/2/3
f 145/2/3 137/2/3 144/2/3
f 146/2/3 139/2/3 138/2/3
f 147/3/3 131/3/3 111/3/3
f 148/3/3 131/3/3 147/3/3
f 149/2/3 135/2/3 131/2/3
f 149/3/3 131/3/3 148/3/3
f 149/2/3 144/2/3 135/2/3
f 150/3/3 146/3/3 145/3/3
f 150/2/3 144/2/3 149/2/3
f 150/3/3 145/3/3 144/3/3
f 151/2/3 139/2/3 146/2/3
f 151/3/3 146/3/3 150/3/3
f 152/3/3 143/3/3 142/3/3
f 152/2/3 139/2/3 151/2/3
f 152/3/3 142/3/3 139/3/3
f 153/3/3 143/3/3 152/3/3
f 154/3/3 143/3/3 153/3/3
f 155/3/3 149/3/3 148/3/3
f 155/3/3 150/3/3 149/3/3
f 155/3/3 153/3/3 152/3/3
f 155/3/3 152/3/3 151/3/3
f 155/3/3 151/3/3 150/3/3
f 156/3/3 153/3/3 155/3/3
f 157/3/3 153/3/3 156/3/3
f 158/3/3 153/3/3 157/3/3
f 160/3/3 159/3/3 158/3/3
f 160/3/3 158/3/3 157/3/3
f 160/4/3 157/4/3 156/4/3
f 161/3/3 159/3/3 160/3/3
f 162/3/3 159/3/3 161/3/3
f 163/4/3 160/4/3 156/4/3
f 163/4/3 161/4/3 160/4/3
f 164/4/3 161/4/3 163/4/3
f 165/4/3 161/4/3 164/4/3
f 167/3/3 166/3/3 165/3/3
f 167/3/3 165/3/3 164/3/3
f 168/3/3 166/3/3 167/3/3
f 169/3/4 170/3/4 172/3/4
f 172/3/4 170/3/4 173/3/4
f 173/3/4 170/3/4 174/3/4
f 171/4/4 172/4/4 175/4/4
f 172/4/4 173/4/4 175/4/4
f 175/4/4 173/4/4 176/4/4
f 171/4/4 175/4/4 179/4/4
f 176/3/4 177/3/4 180/3/4
f 175/3/4 176/3/4 180/3/4
f 179/4/4 175/4/4 180/4/4
f 180/3/4 177/3/4 181/3/4
f 181/3/4 177/3/4 182/3/4
f 178/3/4 179/3/4 184/3/4
f 179/3/4 180/3/4 184/3/4
f 180/3/4 181/3/4 184/3/4
f 184/3/4 181/3/4 185/3/4
f 185/3/4 181/3/4 186/3/4
f 186/3/4 181/3/4 187/3/4
f 187/3/4 181/3/4 188/3/4
f 188/3/4 181/3/4 189/3/4
f 185/1/4 186/1/4 191/1/4
f 186/3/4 187/3/4 191/3/4
f 191/3/4 187/3/4 192/3/4
f 187/1/4 188/1/4 193/1/4
f 192/3/4 187/3/4 193/3/4
f 189/3/4 190/3/4 194/3/4
f 188/3/4 189/3/4 194/3/4
f 194/3/4 190/3/4 195/3/4
f 188/3/4 194/3/4 196/3/4
f 191/1/4 192/1/4 198/1/4
f 193/1/4 188/1/4 199/1/4
f 196/3/4 197/3/4 200/3/4
f 188/3/4 196/3/4 200/3/4
f 199/1/4 188/1/4 200/1/4
f 191/1/4 198/1/4 201/1/4
f 185/1/4 191/1/4 201/1/4
f 201/1/4 198/1/4 202/1/4
f 183/3/4 184/3/4 203/3/4
f 184/3/4 185/3/4 203/3/4
f 185/1/4 201/1/4 203/1/4
f 201/2/4 202/2/4 204/2/4
f 203/1/4 201/1/4 204/1/4
f 202/1/4 198/1/4 205/1/4
f 204/2/4 202/2/4 205/2/4
f 199/3/4 200/3/4 206/3/4
f 205/1/4 198/1/4 206/1/4
f 198/3/4 199/3/4 206/3/4
f 203/2/4 204/2/4 207/2/4
f 204/3/4 205/3/4 207/3/4
f 205/2/4 206/2/4 208/2/4
f 207/3/4 205/3/4 208/3/4
f 206/3/4 200/3/4 209/3/4
f 208/2/4 206/2/4 209/2/4
f 207/2/4 208/2/4 209/2/4
f 209/3/4 200/3/4 210/3/4
f 200/3/4 197/3/4 211/3/4
f 210/3/4 200/3/4 211/3/4
f 211/3/4 197/3/4 212/3/4
f 212/3/4 197/3/4 213/3/4
f 211/3/4 212/3/4 214/3/4
f 207/2/4 209/2/4 216/2/4
f 216/2/4 209/2/4 217/2/4
f 210/2/4 211/2/4 218/2/4
f 183/3/4 203/3/4 219/3/4
f 219/3/4 203/3/4 220/3/4
f 203/2/4 207/2/4 221/2/4
f 220/3/4 203/3/4 221/3/4
f 207/2/4 216/2/4 221/2/4
f 217/3/4 218/3/4 222/3/4
f 221/2/4 216/2/4 222/2/4
f 216/3/4 217/3/4 222/3/4
f 218/2/4 211/2/4 223/2/4
f 222/3/4 218/3/4 223/3/4
f 214/3/4 215/3/4 224/3/4
f 223/2/4 211/2/4 224/2/4
f 211/3/4 214/3/4 224/3/4
f 224/3/4 215/3/4 225/3/4
f 225/3/4 215/3/4 226/3/4
f 220/3/4 221/3/4 227/3/4
f 221/3/4 222/3/4 227/3/4
f 224/3/4 225/3/4 227/3/4
f 223/3/4 224/3/4 227/3/4
f 222/3/4 223/3/4 227/3/4
f 227/3/4 225/3/4 228/3/4
f 228/3/4 225/3/4 229/3/4
f 229/3/4 225/3/4 230/3/4
f 230/3/4 231/3/4 232/3/4
f 229/3/4 230/3/4 232/3/4
f 228/4/4 229/4/4 232/4/4
f 232/3/4 231/3/4 233/3/4
f 233/3/4 231/3/4 234/3/4
f 228/4/4 232/4/4 235/4/4
f 232/4/4 233/4/4 235/4/4
f 235/4/4 233/4/4 236/4/4
f 236/4/4 233/4/4 237/4/4
f 237/3/4 238/3/4 239/3/4
f 236/3/4 237/3/4 239/3/4
f 239/3/4 238/3/4 240/3/4
f 243/3/5 242/3/5 241/3/5
f 244/3/5 242/3/5 243/3/5
f 249/3/5 246/3/5 245/3/5
f 250/3/5 246/3/5 249/3/5
f 251/3/5 248/3/5 247/3/5
f 252/3/5 248/3/5 251/3/5
f 257/4/5 254/4/5 253/4/5
f 258/4/5 254/4/5 257/4/5
f 259/4/5 256/4/5 255/4/5
f 260/4/5 256/4/5 259/4/5
f 265/1/5 262/1/5 261/1/5
f 266/1/5 262/1/5 265/1/5
f 267/2/5 264/2/5 263/2/5
f 268/2/5 264/2/5 267/2/5
f 273/3/5 270/3/5 269/3/5
f 274/3/5 270/3/5 273/3/5
f 275/3/5 272/3/5 271/3/5
f 276/3/5 272/3/5 275/3/5
f 277/1/6 278/1/6 281/1/6
f 281/1/6 278/1/6 282/1/6
f 279/2/6 280/2/6 283/2/6
f 283/2/6 280/2/6 284/2/6
f 285/4/6 286/4/6 297/4/6
f 297/4/6 286/4/6 298/4/6
f 287/3/6 288/3/6 299/3/6
f 299/3/6 288/3/6 300/3/6
f 289/3/6 290/3/6 301/3/6
f 301/3/6 290/3/6 302/3/6
f 291/3/6 292/3/6 303/3/6
f 303/3/6 292/3/6 304/3/6
f 293/3/6 294/3/6 305/3/6
f 305/3/6 294/3/6 306/3/6
f 295/4/6 296/4/6 307/4/6
f 307/4/6 296/4/6 308/4/6
f 309/3/6 310/3/6 323/3/6
f 323/3/6 310/3/6 324/3/6
f 311/3/6 312/3/6 325/3/6
f 325/3/6 312/3/6 326/3/6
f 313/3/6 314/3/6 327/3/6
f 327/3/6 314/3/6 328/3/6
f 315/3/6 316/3/6 329/3/6
f 329/3/6 316/3/6 330/3/6
f 317/3/6 318/3/6 331/3/6
f 331/3/6 318/3/6 332/3/6
f 319/3/6 320/3/6 333/3/6
f 333/3/6 320/3/6 334/3/6
f 321/3/6 322/3/6 335/3/6
f 335/3/6 322/3/6 336/3/6
