#created with MagicaVoxel and VoxelOptimizer  - v:476 - f:323
o Src_WoodBridge_0
mtllib Src_WoodBridge_0.mtl
vn 0 1 0
vn 0 -1 0
vn -1 0 0
vn 1 0 0
vn 0 0 1
vn 0 0 -1
v -48.5 -0.5 9
v -48.5 -0.5 10
v 48.5 -0.5 10
v 48.5 -0.5 9
v -48.5 0.5 9
v -48.5 0.5 10
v 48.5 0.5 10
v 48.5 0.5 9
v -47.5 -0.5 8
v -47.5 -0.5 9
v -23.5 -0.5 9
v -23.5 -0.5 8
v -47.5 0.5 8
v -47.5 0.5 9
v -23.5 0.5 9
v -23.5 0.5 8
v -46.5 -0.5 -10
v -46.5 -0.5 -9
v -41.5 -0.5 -9
v -41.5 -0.5 -10
v -46.5 0.5 -10
v -46.5 0.5 -9
v -41.5 0.5 -9
v -41.5 0.5 -10
v -45.5 -0.5 -9
v -45.5 -0.5 -8
v 30.5 -0.5 -8
v 30.5 -0.5 -9
v -45.5 0.5 -9
v -45.5 0.5 -8
v 30.5 0.5 -8
v 30.5 0.5 -9
v -40.5 -0.5 -8
v -40.5 -0.5 -7
v -22.5 -0.5 -7
v -22.5 -0.5 -8
v -40.5 0.5 -8
v -40.5 0.5 -7
v -22.5 0.5 -7
v -22.5 0.5 -8
v -40.5 -0.5 -6
v -40.5 -0.5 6
v -35.5 -0.5 6
v -35.5 -0.5 -6
v -40.5 0.5 -6
v -40.5 0.5 6
v -35.5 0.5 6
v -35.5 0.5 -6
v -39.5 -0.5 -7
v -39.5 -0.5 -6
v -29.5 -0.5 -6
v -29.5 -0.5 -7
v -39.5 0.5 -7
v -39.5 0.5 -6
v -29.5 0.5 -6
v -29.5 0.5 -7
v -39.5 -0.5 6
v -39.5 -0.5 8
v -35.5 -0.5 8
v -39.5 0.5 6
v -39.5 0.5 8
v -35.5 0.5 8
v -38.5 -0.5 -10
v -38.5 -0.5 -9
v -35.5 -0.5 -9
v -35.5 -0.5 -10
v -38.5 0.5 -10
v -38.5 0.5 -9
v -35.5 0.5 -9
v -35.5 0.5 -10
v -35.5 -0.5 2
v -34.5 -0.5 2
v -34.5 -0.5 -6
v -35.5 0.5 2
v -34.5 0.5 2
v -34.5 0.5 -6
v -33.5 -0.5 -6
v -33.5 -0.5 -4
v -28.5 -0.5 -4
v -28.5 -0.5 -6
v -33.5 0.5 -6
v -33.5 0.5 -4
v -28.5 0.5 -4
v -28.5 0.5 -6
v -32.5 -0.5 -4
v -32.5 -0.5 -1
v -27.5 -0.5 -1
v -27.5 -0.5 -4
v -32.5 0.5 -4
v -32.5 0.5 -1
v -27.5 0.5 -1
v -27.5 0.5 -4
v -31.5 -0.5 -1
v -31.5 -0.5 1
v -26.5 -0.5 1
v -26.5 -0.5 -1
v -31.5 0.5 -1
v -31.5 0.5 1
v -26.5 0.5 1
v -26.5 0.5 -1
v -30.5 -0.5 1
v -30.5 -0.5 4
v -25.5 -0.5 4
v -25.5 -0.5 1
v -30.5 0.5 1
v -30.5 0.5 4
v -25.5 0.5 4
v -25.5 0.5 1
v -29.5 -0.5 4
v -29.5 -0.5 8
v -24.5 -0.5 8
v -24.5 -0.5 4
v -29.5 0.5 4
v -29.5 0.5 8
v -24.5 0.5 8
v -24.5 0.5 4
v -24.5 -0.5 6
v -23.5 -0.5 6
v -24.5 0.5 6
v -23.5 0.5 6
v -22.5 -0.5 8
v -22.5 -0.5 9
v -18.5 -0.5 9
v -18.5 -0.5 8
v -22.5 0.5 8
v -22.5 0.5 9
v -18.5 0.5 9
v -18.5 0.5 8
v -21.5 -0.5 2
v -21.5 -0.5 8
v -17.5 -0.5 8
v -17.5 -0.5 2
v -21.5 0.5 2
v -21.5 0.5 8
v -17.5 0.5 8
v -17.5 0.5 2
v -21.5 -0.5 10
v -21.5 -0.5 11
v 23.5 -0.5 11
v 23.5 -0.5 10
v -21.5 0.5 10
v -21.5 0.5 11
v 23.5 0.5 11
v 23.5 0.5 10
v -20.5 -0.5 -10
v -20.5 -0.5 -9
v 46.5 -0.5 -9
v 46.5 -0.5 -10
v -20.5 0.5 -10
v -20.5 0.5 -9
v 46.5 0.5 -9
v 46.5 0.5 -10
v -20.5 -0.5 -8
v -20.5 -0.5 2
v -16.5 -0.5 2
v -16.5 -0.5 -8
v -20.5 0.5 -8
v -20.5 0.5 2
v -16.5 0.5 2
v -16.5 0.5 -8
v -18.5 -0.5 -11
v -18.5 -0.5 -10
v -17.5 -0.5 -10
v -17.5 -0.5 -11
v -18.5 0.5 -11
v -18.5 0.5 -10
v -17.5 0.5 -10
v -17.5 0.5 -11
v -14.5 -0.5 -4
v -14.5 -0.5 9
v -10.5 -0.5 9
v -10.5 -0.5 -4
v -14.5 0.5 -4
v -14.5 0.5 9
v -10.5 0.5 9
v -10.5 0.5 -4
v -13.5 -0.5 -8
v -13.5 -0.5 -4
v -10.5 -0.5 -8
v -13.5 0.5 -8
v -13.5 0.5 -4
v -10.5 0.5 -8
v -12.5 -0.5 -11
v -12.5 -0.5 -10
v -10.5 -0.5 -10
v -10.5 -0.5 -11
v -12.5 0.5 -11
v -12.5 0.5 -10
v -10.5 0.5 -10
v -10.5 0.5 -11
v -10.5 -0.5 -5
v -9.5 -0.5 -5
v -9.5 -0.5 -8
v -10.5 0.5 -5
v -9.5 0.5 -5
v -9.5 0.5 -8
v -7.5 -0.5 8
v -7.5 -0.5 9
v -3.5 -0.5 9
v -3.5 -0.5 8
v -7.5 0.5 8
v -7.5 0.5 9
v -3.5 0.5 9
v -3.5 0.5 8
v -6.5 -0.5 -8
v -6.5 -0.5 8
v -3.5 -0.5 -8
v -6.5 0.5 -8
v -6.5 0.5 8
v -3.5 0.5 -8
v -3.5 -0.5 7
v -2.5 -0.5 7
v -2.5 -0.5 -8
v -3.5 0.5 7
v -2.5 0.5 7
v -2.5 0.5 -8
v -2.5 -0.5 8
v -2.5 -0.5 9
v 2.5 -0.5 9
v 2.5 -0.5 8
v -2.5 0.5 8
v -2.5 0.5 9
v 2.5 0.5 9
v 2.5 0.5 8
v -1.5 -0.5 5
v -1.5 -0.5 8
v 2.5 -0.5 5
v -1.5 0.5 5
v -1.5 0.5 8
v 2.5 0.5 5
v -0.5 -0.5 0
v -0.5 -0.5 5
v 3.5 -0.5 5
v 3.5 -0.5 0
v -0.5 0.5 0
v -0.5 0.5 5
v 3.5 0.5 5
v 3.5 0.5 0
v 0.5 -0.5 -5
v 0.5 -0.5 0
v 4.5 -0.5 0
v 4.5 -0.5 -5
v 0.5 0.5 -5
v 0.5 0.5 0
v 4.5 0.5 0
v 4.5 0.5 -5
v 1.5 -0.5 -8
v 1.5 -0.5 -5
v 9.5 -0.5 -5
v 9.5 -0.5 -8
v 1.5 0.5 -8
v 1.5 0.5 -5
v 9.5 0.5 -5
v 9.5 0.5 -8
v 3.5 -0.5 6
v 3.5 -0.5 9
v 7.5 -0.5 9
v 7.5 -0.5 6
v 3.5 0.5 6
v 3.5 0.5 9
v 7.5 0.5 9
v 7.5 0.5 6
v 4.5 -0.5 -4
v 9.5 -0.5 -4
v 4.5 0.5 -4
v 9.5 0.5 -4
v 4.5 -0.5 -1
v 4.5 -0.5 6
v 8.5 -0.5 6
v 8.5 -0.5 -1
v 4.5 0.5 -1
v 4.5 0.5 6
v 8.5 0.5 6
v 8.5 0.5 -1
v 5.5 -0.5 -11
v 5.5 -0.5 -10
v 9.5 -0.5 -10
v 9.5 -0.5 -11
v 5.5 0.5 -11
v 5.5 0.5 -10
v 9.5 0.5 -10
v 9.5 0.5 -11
v 5.5 -0.5 -4
v 5.5 -0.5 -1
v 8.5 -0.5 -4
v 5.5 0.5 -4
v 5.5 0.5 -1
v 8.5 0.5 -4
v 6.5 -0.5 -12
v 6.5 -0.5 -11
v 8.5 -0.5 -11
v 8.5 -0.5 -12
v 6.5 0.5 -12
v 6.5 0.5 -11
v 8.5 0.5 -11
v 8.5 0.5 -12
v 8.5 -0.5 -2
v 9.5 -0.5 -2
v 8.5 0.5 -2
v 9.5 0.5 -2
v 10.5 -0.5 5
v 10.5 -0.5 9
v 14.5 -0.5 9
v 14.5 -0.5 5
v 10.5 0.5 5
v 10.5 0.5 9
v 14.5 0.5 9
v 14.5 0.5 5
v 11.5 -0.5 -8
v 11.5 -0.5 5
v 15.5 -0.5 5
v 15.5 -0.5 -8
v 11.5 0.5 -8
v 11.5 0.5 5
v 15.5 0.5 5
v 15.5 0.5 -8
v 12.5 -0.5 -11
v 12.5 -0.5 -10
v 15.5 -0.5 -10
v 15.5 -0.5 -11
v 12.5 0.5 -11
v 12.5 0.5 -10
v 15.5 0.5 -10
v 15.5 0.5 -11
v 18.5 -0.5 -11
v 18.5 -0.5 -10
v 22.5 -0.5 -10
v 22.5 -0.5 -11
v 18.5 0.5 -11
v 18.5 0.5 -10
v 22.5 0.5 -10
v 22.5 0.5 -11
v 18.5 -0.5 -8
v 18.5 -0.5 -1
v 22.5 -0.5 -1
v 22.5 -0.5 -8
v 18.5 0.5 -8
v 18.5 0.5 -1
v 22.5 0.5 -1
v 22.5 0.5 -8
v 19.5 -0.5 -12
v 19.5 -0.5 -11
v 21.5 -0.5 -11
v 21.5 -0.5 -12
v 19.5 0.5 -12
v 19.5 0.5 -11
v 21.5 0.5 -11
v 21.5 0.5 -12
v 19.5 -0.5 -1
v 19.5 -0.5 9
v 22.5 -0.5 9
v 19.5 0.5 -1
v 19.5 0.5 9
v 22.5 0.5 9
v 22.5 -0.5 0
v 23.5 -0.5 9
v 23.5 -0.5 0
v 22.5 0.5 0
v 23.5 0.5 9
v 23.5 0.5 0
v 26.5 -0.5 -11
v 26.5 -0.5 -10
v 29.5 -0.5 -10
v 29.5 -0.5 -11
v 26.5 0.5 -11
v 26.5 0.5 -10
v 29.5 0.5 -10
v 29.5 0.5 -11
v 26.5 -0.5 -8
v 26.5 -0.5 3
v 30.5 -0.5 3
v 26.5 0.5 -8
v 26.5 0.5 3
v 30.5 0.5 3
v 26.5 -0.5 8
v 26.5 -0.5 9
v 30.5 -0.5 9
v 30.5 -0.5 8
v 26.5 0.5 8
v 26.5 0.5 9
v 30.5 0.5 9
v 30.5 0.5 8
v 27.5 -0.5 -12
v 27.5 -0.5 -11
v 28.5 -0.5 -11
v 28.5 -0.5 -12
v 27.5 0.5 -12
v 27.5 0.5 -11
v 28.5 0.5 -11
v 28.5 0.5 -12
v 27.5 -0.5 3
v 27.5 -0.5 8
v 31.5 -0.5 8
v 31.5 -0.5 3
v 27.5 0.5 3
v 27.5 0.5 8
v 31.5 0.5 8
v 31.5 0.5 3
v 27.5 -0.5 10
v 27.5 -0.5 11
v 29.5 -0.5 11
v 29.5 -0.5 10
v 27.5 0.5 10
v 27.5 0.5 11
v 29.5 0.5 11
v 29.5 0.5 10
v 32.5 -0.5 -11
v 32.5 -0.5 -10
v 46.5 -0.5 -11
v 32.5 0.5 -11
v 32.5 0.5 -10
v 46.5 0.5 -11
v 32.5 -0.5 -3
v 32.5 -0.5 9
v 36.5 -0.5 9
v 36.5 -0.5 -3
v 32.5 0.5 -3
v 32.5 0.5 9
v 36.5 0.5 9
v 36.5 0.5 -3
v 33.5 -0.5 -9
v 33.5 -0.5 -3
v 36.5 -0.5 -9
v 33.5 0.5 -9
v 33.5 0.5 -3
v 36.5 0.5 -9
v 36.5 -0.5 -4
v 37.5 -0.5 -4
v 37.5 -0.5 -9
v 36.5 0.5 -4
v 37.5 0.5 -4
v 37.5 0.5 -9
v 37.5 -0.5 10
v 37.5 -0.5 11
v 47.5 -0.5 11
v 47.5 -0.5 10
v 37.5 0.5 10
v 37.5 0.5 11
v 47.5 0.5 11
v 47.5 0.5 10
v 38.5 -0.5 -9
v 38.5 -0.5 -7
v 42.5 -0.5 -7
v 42.5 -0.5 -9
v 38.5 0.5 -9
v 38.5 0.5 -7
v 42.5 0.5 -7
v 42.5 0.5 -9
v 38.5 -0.5 -2
v 38.5 -0.5 9
v 42.5 -0.5 9
v 42.5 -0.5 -2
v 38.5 0.5 -2
v 38.5 0.5 9
v 42.5 0.5 9
v 42.5 0.5 -2
v 39.5 -0.5 -12
v 39.5 -0.5 -11
v 42.5 -0.5 -11
v 42.5 -0.5 -12
v 39.5 0.5 -12
v 39.5 0.5 -11
v 42.5 0.5 -11
v 42.5 0.5 -12
v 39.5 -0.5 -7
v 39.5 -0.5 -2
v 39.5 0.5 -7
v 39.5 0.5 -2
v 39.5 -0.5 11
v 39.5 -0.5 12
v 41.5 -0.5 12
v 41.5 -0.5 11
v 39.5 0.5 11
v 39.5 0.5 12
v 41.5 0.5 12
v 41.5 0.5 11
vt 0.00000 1.00000
vt 0.00000 0.24219
vt 0.00781 0.24219
vt 0.00781 1.00000
vt 0.00781 0.40625
vt 0.01562 0.40625
vt 0.01562 1.00000
vt 0.01562 0.47656
vt 0.02344 0.47656
vt 0.02344 1.00000
vt 0.00781 0.05469
vt 0.01562 0.05469
vt 0.00000 0.05469
vt 0.00000 0.01562
vt 0.09375 0.01562
vt 0.09375 0.05469
vt 0.01562 0.44531
vt 0.11719 0.44531
vt 0.11719 0.47656
vt 0.01562 0.41406
vt 0.11719 0.41406
vt 0.01562 0.39062
vt 0.14062 0.39062
vt 0.14062 0.41406
vt 0.01562 0.35938
vt 0.10938 0.35938
vt 0.10938 0.39062
vt 0.01562 0.32812
vt 0.10156 0.32812
vt 0.10156 0.35938
vt 0.01562 0.29688
vt 0.10156 0.29688
vt 0.01562 0.26562
vt 0.09375 0.26562
vt 0.09375 0.29688
vt 0.01562 0.24219
vt 0.09375 0.24219
vt 0.01562 0.10156
vt 0.02344 0.10156
vt 0.02344 0.24219
vt 0.01562 0.07031
vt 0.07031 0.07031
vt 0.07031 0.10156
vt 0.02344 0.21094
vt 0.07812 0.21094
vt 0.07812 0.24219
vt 0.01562 0.06250
vt 0.14062 0.06250
vt 0.14062 0.07031
vt 0.14062 0.05469
vt 0.02344 0.14844
vt 0.04688 0.14844
vt 0.04688 0.21094
vt 0.02344 0.11719
vt 0.07031 0.11719
vt 0.07031 0.14844
vt 0.02344 0.10938
vt 0.14062 0.10938
vt 0.14062 0.11719
vt 0.07812 0.13281
vt 0.08594 0.13281
vt 0.08594 0.24219
vt 0.12500 0.10156
vt 0.12500 0.10938
vt 0.07031 0.13281
vt 0.07031 0.12500
vt 0.17188 0.12500
vt 0.17188 0.13281
vt 0.17188 0.11719
vt 0.00000 0.00781
vt 0.10156 0.00781
vt 0.10156 0.01562
vt 0.04688 0.17188
vt 0.07812 0.17188
vt 0.10938 0.07031
vt 0.10938 0.10156
vt 0.14844 0.07031
vt 0.14844 0.10156
vt 0.09375 0.02344
vt 0.13281 0.02344
vt 0.13281 0.05469
vt 0.21875 0.10156
vt 0.21875 0.10938
vt 0.23438 0.10938
vt 0.23438 0.11719
vt 0.18750 0.01562
vt 0.18750 0.02344
vt 0.00000 0.00000
vt 0.09375 0.00000
vt 0.09375 0.00781
vt 0.13281 0.03125
vt 0.17969 0.03125
vt 0.17969 0.05469
vt 0.21875 0.02344
vt 0.21875 0.03125
vt 0.17969 0.00000
vt 0.17969 0.00781
vt 0.18750 0.00781
vt 0.26562 0.00000
vt 0.26562 0.00781
vt 0.22656 0.03125
vt 0.22656 0.10938
vt 0.17969 0.10156
vt 0.17969 0.06250
vt 0.20312 0.06250
vt 0.20312 0.10156
vt 0.14844 0.06250
vt 0.17188 0.06250
vt 0.17188 0.10156
vt 0.21875 0.05469
vt 0.21875 0.06250
vt 0.26562 0.01562
vt 0.26562 0.02344
vt 0.22656 0.07812
vt 0.25781 0.07812
vt 0.25781 0.10938
vt 0.29688 0.02344
vt 0.29688 0.03125
vt 0.08594 0.16406
vt 0.09375 0.16406
vt 0.33594 0.01562
vt 0.33594 0.02344
vt 0.32812 0.00781
vt 0.32812 0.01562
vt 0.07812 0.14844
vt 0.10938 0.13281
vt 0.10938 0.16406
vt 0.22656 0.04688
vt 0.25000 0.04688
vt 0.25000 0.07812
vt 0.25000 0.03906
vt 0.26562 0.03906
vt 0.26562 0.07812
vt 0.32031 0.00000
vt 0.32031 0.00781
vt 0.37500 0.00000
vt 0.37500 0.00781
vt 0.38281 0.00781
vt 0.38281 0.01562
vt 0.42969 0.00000
vt 0.42969 0.00781
vt 0.10938 0.26562
vt 0.10938 0.29688
vt 0.22656 0.03906
vt 0.27344 0.03125
vt 0.27344 0.03906
vt 0.10156 0.35156
vt 0.14844 0.35156
vt 0.14844 0.35938
vt 0.10938 0.36719
vt 0.13281 0.36719
vt 0.13281 0.39062
vt 0.15625 0.35938
vt 0.15625 0.36719
vt 0.13281 0.38281
vt 0.17969 0.38281
vt 0.17969 0.39062
vt 0.10156 0.32031
vt 0.11719 0.32031
vt 0.11719 0.35156
vt 0.13281 0.37500
vt 0.17188 0.37500
vt 0.17188 0.38281
vt 0.17188 0.36719
vt 0.10156 0.31250
vt 0.14062 0.31250
vt 0.14062 0.32031
vt 0.10156 0.30469
vt 0.14062 0.30469
vt 0.14062 0.29688
vt 0.11719 0.34375
vt 0.15625 0.34375
vt 0.15625 0.35156
vt 0.18750 0.35156
vt 0.18750 0.35938
vt 0.19531 0.35938
vt 0.19531 0.36719
vt 0.21094 0.37500
vt 0.21094 0.38281
vt 0.21094 0.36719
vt 0.11719 0.33594
vt 0.15625 0.33594
vt 0.11719 0.32812
vt 0.15625 0.32812
vt 0.14844 0.32031
vt 0.14844 0.32812
vt 0.09375 0.25781
vt 0.12500 0.25781
vt 0.12500 0.26562
vt 0.11719 0.26562
vt 0.11719 0.29688
vt 0.11719 0.28906
vt 0.14844 0.28906
vt 0.14844 0.29688
vt 0.17188 0.31250
vt 0.17188 0.32031
vt 0.17969 0.32031
vt 0.17969 0.32812
vt 0.17188 0.30469
vt 0.17188 0.29688
vt 0.17969 0.34375
vt 0.17969 0.35156
vt 0.17969 0.33594
vt 0.11719 0.28125
vt 0.13281 0.28125
vt 0.13281 0.28906
vt 0.07031 0.14062
vt 0.07812 0.14062
usemtl x
f 5/2/1 6/3/1 7/4/1 8/1/1
f 4/4/2 3/1/2 2/2/2 1/3/2
f 4/4/6 1/3/6 5/2/6 8/1/6
f 2/2/5 3/1/5 7/4/5 6/3/5
f 1/48/3 2/107/3 6/77/3 5/49/3
f 3/48/4 4/107/4 8/77/4 7/49/4
f 13/13/1 14/11/1 15/3/1 16/2/1
f 12/3/2 11/2/2 10/13/2 9/11/2
f 12/3/6 9/11/6 13/13/6 16/2/6
f 9/48/3 10/107/3 14/77/3 13/49/3
f 11/207/4 12/208/4 16/125/4 15/56/4
f 21/48/1 22/107/1 23/77/1 24/49/1
f 20/48/2 19/107/2 18/77/2 17/49/2
f 20/48/6 17/107/6 21/77/6 24/49/6
f 18/48/5 19/107/5 23/77/5 22/49/5
f 17/48/3 18/107/3 22/77/3 21/49/3
f 19/48/4 20/107/4 24/77/4 23/49/4
f 29/5/1 30/6/1 31/7/1 32/4/1
f 28/7/2 27/4/2 26/5/2 25/6/2
f 28/7/6 25/6/6 29/5/6 32/4/6
f 26/5/5 27/4/5 31/7/5 30/6/5
f 25/48/3 26/107/3 30/77/3 29/49/3
f 27/207/4 28/208/4 32/125/4 31/56/4
f 37/38/1 38/39/1 39/40/1 40/36/1
f 36/40/2 35/36/2 34/38/2 33/39/2
f 34/38/5 35/36/5 39/40/5 38/39/5
f 33/48/3 34/107/3 38/77/3 37/49/3
f 35/48/4 36/107/4 40/77/4 39/49/4
f 45/14/1 46/15/1 47/16/1 48/13/1
f 44/15/2 43/14/2 42/13/2 41/16/2
f 44/161/6 41/162/6 45/163/6 48/155/6
f 42/151/5 43/164/5 47/162/5 46/161/5
f 41/63/3 42/82/3 46/83/3 45/64/3
f 43/58/4 44/84/4 48/85/4 47/59/4
f 53/95/1 54/101/1 55/102/1 56/83/1
f 52/102/2 51/83/2 50/95/2 49/101/2
f 50/95/5 51/83/5 55/102/5 54/101/5
f 49/65/3 50/60/3 54/208/3 53/207/3
f 51/65/4 52/60/4 56/208/4 55/207/4
f 60/34/1 61/142/1 62/143/1 47/35/1
f 43/142/2 59/34/2 58/35/2 57/143/2
f 57/204/3 58/205/3 61/206/3 60/192/3
f 59/207/4 43/208/4 47/125/4 62/56/4
f 67/65/1 68/60/1 69/208/1 70/207/1
f 66/65/2 65/60/2 64/208/2 63/207/2
f 66/65/6 63/60/6 67/208/6 70/207/6
f 63/65/3 64/60/3 68/208/3 67/207/3
f 65/65/4 66/60/4 70/208/4 69/207/4
f 48/100/1 74/123/1 75/124/1 76/112/1
f 73/100/2 72/123/2 71/124/2 44/112/2
f 71/207/5 72/208/5 75/125/5 74/56/5
f 72/123/4 73/100/4 76/112/4 75/124/4
f 81/105/1 82/111/1 83/82/1 84/106/1
f 80/111/2 79/105/2 78/106/2 77/82/2
f 80/165/6 77/166/6 81/167/6 84/158/6
f 78/168/5 79/169/5 83/166/5 82/165/5
f 77/205/3 78/204/3 82/192/3 81/206/3
f 79/65/4 80/60/4 84/208/4 83/207/4
f 89/104/1 90/105/1 91/106/1 92/103/1
f 88/105/2 87/104/2 86/103/2 85/106/2
f 88/32/6 85/170/6 89/169/6 92/168/6
f 86/171/5 87/172/5 91/173/5 90/160/5
f 85/144/3 86/131/3 90/129/3 89/128/3
f 87/207/4 88/208/4 92/125/4 91/56/4
f 97/131/1 98/132/1 99/133/1 100/130/1
f 96/131/2 95/132/2 94/133/2 93/130/2
f 96/148/6 93/174/6 97/175/6 100/149/6
f 94/153/5 95/176/5 99/177/5 98/154/5
f 93/204/3 94/205/3 98/206/3 97/192/3
f 95/205/4 96/204/4 100/192/4 99/206/4
f 105/107/1 106/108/1 107/109/1 108/78/1
f 104/108/2 103/107/2 102/78/2 101/109/2
f 104/172/6 101/171/6 105/160/6 108/173/6
f 102/168/5 103/169/5 107/166/5 106/165/5
f 101/131/3 102/144/3 106/128/3 105/129/3
f 103/172/4 104/201/4 108/202/4 107/173/4
f 113/73/1 114/74/1 115/45/1 116/53/1
f 112/74/2 111/73/2 110/53/2 109/45/2
f 112/166/6 109/165/6 113/158/6 116/167/6
f 109/159/3 110/185/3 114/186/3 113/183/3
f 111/187/4 112/188/4 116/189/4 115/34/4
f 119/205/1 115/204/1 16/192/1 120/206/1
f 118/205/2 12/204/2 111/192/2 117/206/2
f 118/207/6 117/208/6 119/125/6 120/56/6
f 12/204/4 118/205/4 120/206/4 16/192/4
f 125/142/1 126/190/1 127/191/1 128/143/1
f 124/191/2 123/143/2 122/142/2 121/190/2
f 124/191/6 121/190/6 125/142/6 128/143/6
f 121/207/3 122/208/3 126/125/3 125/56/3
f 123/207/4 124/208/4 128/125/4 127/56/4
f 133/54/1 134/55/1 135/56/1 136/51/1
f 132/55/2 131/54/2 130/51/2 129/56/2
f 132/185/6 129/159/6 133/183/6 136/186/6
f 130/192/5 131/193/5 135/194/5 134/191/5
f 129/101/3 130/145/3 134/146/3 133/144/3
f 131/147/4 132/148/4 136/149/4 135/30/4
f 141/11/1 142/12/1 143/6/1 144/5/1
f 140/6/2 139/5/2 138/11/2 137/12/2
f 138/11/5 139/5/5 143/6/5 142/12/5
f 137/65/3 138/60/3 142/208/3 141/207/3
f 139/48/4 140/107/4 144/77/4 143/49/4
f 149/8/1 150/9/1 151/10/1 152/7/1
f 148/10/2 147/7/2 146/8/2 145/9/2
f 148/10/6 145/9/6 149/8/6 152/7/6
f 146/8/5 147/7/5 151/10/5 150/9/5
f 145/65/3 146/60/3 150/208/3 149/207/3
f 147/48/4 148/107/4 152/77/4 151/49/4
f 157/33/1 158/34/1 159/35/1 160/31/1
f 156/34/2 155/33/2 154/31/2 153/35/2
f 154/166/5 155/195/5 159/196/5 158/167/5
f 153/50/3 154/110/3 158/111/3 157/48/3
f 155/86/4 156/112/4 160/113/4 159/87/4
f 165/207/1 166/208/1 167/125/1 168/56/1
f 164/207/2 163/208/2 162/125/2 161/56/2
f 164/207/6 161/208/6 165/125/6 168/56/6
f 161/207/3 162/208/3 166/125/3 165/56/3
f 163/207/4 164/208/4 168/125/4 167/56/4
f 173/17/1 174/18/1 175/19/1 176/8/1
f 172/18/2 171/17/2 170/8/2 169/19/2
f 172/195/6 169/166/6 173/167/6 176/196/6
f 169/39/3 170/63/3 174/64/3 173/57/3
f 171/66/4 172/67/4 176/68/4 175/65/4
f 180/52/1 181/125/1 176/74/1 182/73/1
f 179/52/2 172/125/2 178/74/2 177/73/2
f 177/185/3 178/197/3 181/198/3 180/186/3
f 172/185/4 179/197/4 182/198/4 176/186/4
f 187/206/1 188/205/1 189/204/1 190/192/1
f 186/192/2 185/204/2 184/205/2 183/206/2
f 186/204/6 183/205/6 187/206/6 190/192/6
f 183/207/3 184/208/3 188/125/3 187/56/3
f 185/65/4 186/60/4 190/208/4 189/207/4
f 182/182/1 194/203/1 195/201/1 196/172/1
f 193/182/2 192/203/2 191/201/2 179/172/2
f 191/207/5 192/208/5 195/125/5 194/56/5
f 192/182/4 193/203/4 196/201/4 195/172/4
f 201/142/1 202/190/1 203/191/1 204/143/1
f 200/191/2 199/143/2 198/142/2 197/190/2
f 200/191/6 197/190/6 201/142/6 204/143/6
f 197/207/3 198/208/3 202/125/3 201/56/3
f 199/207/4 200/208/4 204/125/4 203/56/4
f 208/22/1 209/23/1 204/24/1 210/20/1
f 207/23/2 200/22/2 206/20/2 205/24/2
f 205/47/3 206/48/3 209/49/3 208/41/3
f 200/12/4 207/50/4 210/48/4 204/47/4
f 210/57/1 214/58/1 215/59/1 216/54/1
f 213/57/2 212/58/2 211/59/2 207/54/2
f 211/207/5 212/208/5 215/125/5 214/56/5
f 212/58/4 213/57/4 216/54/4 215/59/4
f 221/168/1 222/32/1 223/170/1 224/169/1
f 220/169/2 219/170/2 218/32/2 217/168/2
f 220/170/6 217/32/6 221/168/6 224/169/6
f 217/207/3 218/208/3 222/125/3 221/56/3
f 219/65/4 220/60/4 224/208/4 223/207/4
f 228/61/1 229/126/1 224/127/1 230/119/1
f 227/126/2 220/61/2 226/119/2 225/127/2
f 227/195/6 225/166/6 228/167/6 230/196/6
f 225/207/3 226/208/3 229/125/3 228/56/3
f 220/65/4 227/60/4 230/208/4 224/207/4
f 235/42/1 236/75/1 237/76/1 238/43/1
f 234/75/2 233/42/2 232/43/2 231/76/2
f 234/185/6 231/159/6 235/183/6 238/186/6
f 232/188/5 233/187/5 237/34/5 236/189/5
f 231/165/3 232/166/3 236/167/3 235/158/3
f 233/162/4 234/178/4 238/179/4 237/163/4
f 243/75/1 244/77/1 245/78/1 246/76/1
f 242/77/2 241/75/2 240/76/2 239/78/2
f 242/192/6 239/193/6 243/194/6 246/191/6
f 240/169/5 241/199/5 245/195/5 244/166/5
f 239/162/3 240/161/3 244/155/3 243/163/3
f 241/164/4 242/180/4 246/178/4 245/162/4
f 251/51/1 252/52/1 253/53/1 254/44/1
f 250/52/2 249/51/2 248/44/2 247/53/2
f 247/182/3 248/203/3 252/201/3 251/172/3
f 249/207/4 250/208/4 254/125/4 253/56/4
f 259/128/1 260/129/1 261/130/1 262/114/1
f 258/129/2 257/128/2 256/114/2 255/130/2
f 258/159/6 255/185/6 259/186/6 262/183/6
f 255/207/3 256/208/3 260/125/3 259/56/3
f 257/184/4 258/198/4 262/203/4 261/182/4
f 246/108/1 265/104/1 266/103/1 253/109/1
f 249/108/2 264/104/2 263/103/2 242/109/2
f 263/103/5 264/104/5 266/108/5 265/109/5
f 264/65/4 249/60/4 253/208/4 266/207/4
f 271/41/1 272/42/1 273/43/1 274/38/1
f 270/42/2 269/41/2 268/38/2 267/43/2
f 270/142/6 267/143/6 271/191/6 274/190/6
f 268/187/5 269/188/5 273/189/5 272/34/5
f 267/99/3 268/134/3 272/135/3 271/100/3
f 269/134/4 270/136/4 274/137/4 273/135/4
f 279/183/1 280/159/1 281/185/1 282/186/1
f 278/186/2 277/185/2 276/159/2 275/183/2
f 278/185/6 275/159/6 279/183/6 282/186/6
f 275/65/3 276/60/3 280/208/3 279/207/3
f 277/207/4 278/208/4 282/125/4 281/56/4
f 286/150/1 287/151/1 274/152/1 288/27/1
f 285/151/2 270/150/2 284/27/2 283/152/2
f 283/131/3 284/144/3 287/128/3 286/129/3
f 270/131/4 285/144/4 288/128/4 274/129/4
f 293/65/1 294/60/1 295/208/1 296/207/1
f 292/65/2 291/60/2 290/208/2 289/207/2
f 292/65/6 289/60/6 293/208/6 296/207/6
f 289/65/3 290/60/3 294/208/3 293/207/3
f 291/65/4 292/60/4 296/208/4 295/207/4
f 288/204/1 299/205/1 300/206/1 266/192/1
f 264/204/2 298/205/2 297/206/2 285/192/2
f 297/207/5 298/208/5 300/125/5 299/56/5
f 298/205/4 264/204/4 266/192/4 300/206/4
f 305/114/1 306/115/1 307/116/1 308/102/1
f 304/115/2 303/114/2 302/102/2 301/116/2
f 304/170/6 301/200/6 305/199/6 308/169/6
f 301/170/3 302/200/3 306/199/3 305/169/3
f 303/159/4 304/185/4 308/186/4 307/183/4
f 313/20/1 314/21/1 315/18/1 316/17/1
f 312/21/2 311/20/2 310/17/2 309/18/2
f 310/193/5 311/192/5 315/191/5 314/194/5
f 309/55/3 310/69/3 314/67/3 313/66/3
f 311/70/4 312/71/4 316/72/4 315/14/4
f 321/129/1 322/131/1 323/144/1 324/128/1
f 320/128/2 319/144/2 318/131/2 317/129/2
f 320/144/6 317/131/6 321/129/6 324/128/6
f 317/207/3 318/208/3 322/125/3 321/56/3
f 319/65/4 320/60/4 324/208/4 323/207/4
f 329/191/1 330/192/1 331/193/1 332/194/1
f 328/194/2 327/193/2 326/192/2 325/191/2
f 328/193/6 325/192/6 329/191/6 332/194/6
f 325/207/3 326/208/3 330/125/3 329/56/3
f 327/65/4 328/60/4 332/208/4 331/207/4
f 337/44/1 338/45/1 339/46/1 340/40/1
f 336/45/2 335/44/2 334/40/2 333/46/2
f 334/185/5 335/197/5 339/198/5 338/186/5
f 333/123/3 334/138/3 338/139/3 337/124/3
f 335/136/4 336/140/4 340/141/4 339/137/4
f 345/207/1 346/208/1 347/125/1 348/56/1
f 344/207/2 343/208/2 342/125/2 341/56/2
f 344/207/6 341/208/6 345/125/6 348/56/6
f 341/207/3 342/208/3 346/125/3 345/56/3
f 343/207/4 344/208/4 348/125/4 347/56/4
f 352/36/1 353/37/1 354/34/1 339/33/1
f 335/37/2 351/36/2 350/33/2 349/34/2
f 349/94/3 350/117/3 353/118/3 352/95/3
f 351/98/4 335/100/4 339/112/4 354/86/4
f 358/112/1 354/121/1 359/122/1 360/113/1
f 357/112/2 356/121/2 351/122/2 355/113/2
f 357/207/6 355/208/6 358/125/6 360/56/6
f 356/112/4 357/121/4 360/122/4 359/113/4
f 365/201/1 366/203/1 367/182/1 368/172/1
f 364/201/2 363/203/2 362/182/2 361/172/2
f 364/182/6 361/203/6 365/201/6 368/172/6
f 361/207/3 362/208/3 366/125/3 365/56/3
f 363/207/4 364/208/4 368/125/4 367/56/4
f 372/28/1 373/29/1 374/30/1 31/25/1
f 27/29/2 371/28/2 370/25/2 369/30/2
f 370/193/5 371/192/5 374/191/5 373/194/5
f 369/80/3 370/94/3 373/95/3 372/91/3
f 371/89/4 27/96/4 31/97/4 374/90/4
f 379/167/1 380/166/1 381/195/1 382/196/1
f 378/196/2 377/195/2 376/166/2 375/167/2
f 378/195/6 375/166/6 379/167/6 382/196/6
f 375/207/3 376/208/3 380/125/3 379/56/3
f 377/65/4 378/60/4 382/208/4 381/207/4
f 387/207/1 388/208/1 389/125/1 390/56/1
f 386/207/2 385/208/2 384/125/2 383/56/2
f 386/207/6 383/208/6 387/125/6 390/56/6
f 383/207/3 384/208/3 388/125/3 387/56/3
f 385/207/4 386/208/4 390/125/4 389/56/4
f 395/79/1 396/80/1 397/81/1 398/16/1
f 394/80/2 393/79/2 392/16/2 391/81/2
f 394/185/6 391/197/6 395/198/6 398/186/6
f 392/199/5 393/169/5 397/166/5 396/195/5
f 391/164/3 392/151/3 396/161/3 395/162/3
f 393/164/4 394/151/4 398/161/4 397/162/4
f 403/207/1 404/208/1 405/125/1 406/56/1
f 402/207/2 401/208/2 400/125/2 399/56/2
f 400/207/5 401/208/5 405/125/5 404/56/5
f 399/207/3 400/208/3 404/125/3 403/56/3
f 401/207/4 402/208/4 406/125/4 405/56/4
f 410/60/1 411/61/1 152/62/1 412/46/1
f 409/62/2 148/46/2 408/60/2 407/61/2
f 409/62/6 407/61/6 410/60/6 412/46/6
f 407/48/3 408/107/3 411/77/3 410/49/3
f 148/48/4 409/107/4 412/77/4 152/49/4
f 417/25/1 418/26/1 419/27/1 420/22/1
f 416/26/2 415/25/2 414/22/2 413/27/2
f 416/187/6 413/188/6 417/189/6 420/34/6
f 413/15/3 414/86/3 418/87/3 417/79/3
f 415/88/4 416/89/4 420/90/4 419/70/4
f 424/91/1 425/92/1 420/93/1 426/81/1
f 423/92/2 416/91/2 422/81/2 421/93/2
f 421/26/3 422/153/3 425/154/3 424/150/3
f 416/155/4 423/156/4 426/157/4 420/152/4
f 426/181/1 430/182/1 431/172/1 432/171/1
f 429/181/2 428/182/2 427/172/2 423/171/2
f 427/207/5 428/208/5 431/125/5 430/56/5
f 428/182/4 429/181/4 432/171/4 431/172/4
f 437/119/1 438/120/1 439/37/1 440/62/1
f 436/37/2 435/62/2 434/119/2 433/120/2
f 434/119/5 435/62/5 439/37/5 438/120/5
f 433/48/3 434/107/3 438/77/3 437/49/3
f 435/48/4 436/107/4 440/77/4 439/49/4
f 445/158/1 446/159/1 447/160/1 448/147/1
f 444/159/2 443/158/2 442/147/2 441/160/2
f 442/142/5 443/143/5 447/191/5 446/190/5
f 441/204/3 442/205/3 446/206/3 445/192/3
f 443/207/4 444/208/4 448/125/4 447/56/4
f 453/31/1 454/32/1 455/29/1 456/28/1
f 452/32/2 451/31/2 450/28/2 449/29/2
f 452/193/6 449/192/6 453/191/6 456/194/6
f 449/71/3 450/98/3 454/86/3 453/72/3
f 451/96/4 452/99/4 456/100/4 455/97/4
f 461/203/1 462/198/1 463/184/1 464/182/1
f 460/203/2 459/198/2 458/184/2 457/182/2
f 460/184/6 457/198/6 461/203/6 464/182/6
f 457/65/3 458/60/3 462/208/3 461/207/3
f 459/65/4 460/60/4 464/208/4 463/207/4
f 467/92/1 468/95/1 456/110/1 447/93/1
f 443/95/2 452/92/2 466/93/2 465/110/2
f 465/65/3 466/60/3 468/208/3 467/207/3
f 452/183/4 443/184/4 447/182/4 456/181/4
f 473/206/1 474/205/1 475/204/1 476/192/1
f 472/192/2 471/204/2 470/205/2 469/206/2
f 470/205/5 471/204/5 475/192/5 474/206/5
f 469/207/3 470/208/3 474/125/3 473/56/3
f 471/65/4 472/60/4 476/208/4 475/207/4
