#created with MagicaVoxel and VoxelOptimizer  - v:56 - f:41
o Mdl_HumanKeeper_0
mtllib Mdl_HumanKeeper_0.mtl
vn 0 1 0
vn 0 -1 0
vn -1 0 0
vn 1 0 0
vn 0 0 1
vn 0 0 -1
v -3.5 -0.5 -10
v -3.5 -0.5 -8
v 3.5 -0.5 -8
v 3.5 -0.5 -10
v -3.5 0.5 -10
v -3.5 0.5 -8
v 3.5 0.5 -8
v 3.5 0.5 -10
v -1.5 -0.5 -16
v -1.5 -0.5 -14
v 0.5 -0.5 -14
v 0.5 -0.5 -16
v -1.5 0.5 -16
v -1.5 0.5 -14
v 0.5 0.5 -14
v 0.5 0.5 -16
v -1.5 -0.5 -13
v -1.5 -0.5 -12
v 0.5 -0.5 -12
v 0.5 -0.5 -13
v -1.5 0.5 -13
v -1.5 0.5 -12
v 0.5 0.5 -12
v 0.5 0.5 -13
v -1.5 -0.5 -8
v -1.5 -0.5 14
v 1.5 -0.5 14
v 1.5 -0.5 -8
v -1.5 0.5 -8
v -1.5 0.5 14
v 1.5 0.5 14
v 1.5 0.5 -8
v -0.5 -0.5 -14
v -0.5 -0.5 -13
v -0.5 0.5 -14
v -0.5 0.5 -13
v -0.5 -0.5 -12
v -0.5 -0.5 -10
v 0.5 -0.5 -10
v -0.5 0.5 -12
v -0.5 0.5 -10
v 0.5 0.5 -10
v -0.5 -0.5 14
v -0.5 -0.5 16
v 0.5 -0.5 16
v 0.5 -0.5 14
v -0.5 0.5 14
v -0.5 0.5 16
v 0.5 0.5 16
v 0.5 0.5 14
v 0.5 -0.5 -15
v 1.5 -0.5 -14
v 1.5 -0.5 -15
v 0.5 0.5 -15
v 1.5 0.5 -14
v 1.5 0.5 -15
vt 0.0000 1.0000
vt 0.0000 0.9062
vt 0.6875 0.9062
vt 0.6875 1.0000
vt 0.0000 0.8750
vt 0.6875 0.8750
vt 0.0000 0.8438
vt 0.6875 0.8438
vt 0.6875 0.7812
vt 0.7500 0.7812
vt 0.7500 1.0000
vt 0.7500 0.9688
vt 0.9688 0.9688
vt 0.9688 1.0000
vt 0.7500 0.9375
vt 0.9688 0.9375
vt 0.7500 0.8750
vt 0.8125 0.8750
vt 0.8125 0.9375
vt 0.8125 0.9062
vt 0.8750 0.9062
vt 0.8750 0.9375
vt 0.9375 0.9062
vt 0.9375 0.9375
vt 1.0000 0.9062
vt 1.0000 0.9375
vt 0.8750 0.8750
vt 0.9375 0.8750
vt 1.0000 0.8750
vt 1.0000 1.0000
vt 0.7500 0.8438
vt 0.8125 0.8438
vt 0.8438 0.8438
vt 0.8438 0.8750
vt 0.8750 0.8438
vt 0.9062 0.8438
vt 0.9062 0.8750
usemtl x
f 5/9/1 6/10/1 7/11/1 8/4/1
f 4/10/2 3/9/2 2/4/2 1/11/2
f 4/12/6 1/13/6 5/14/6 8/11/6
f 2/15/5 3/16/5 7/13/5 6/12/5
f 1/20/3 2/21/3 6/22/3 5/19/3
f 3/21/4 4/23/4 8/24/4 7/22/4
f 13/17/1 14/18/1 15/19/1 16/15/1
f 12/18/2 11/17/2 10/15/2 9/19/2
f 12/23/6 9/25/6 13/26/6 16/24/6
f 10/18/5 11/27/5 15/21/5 14/20/5
f 9/27/3 10/28/3 14/23/3 13/21/3
f 11/28/4 12/29/4 16/25/4 15/23/4
f 21/16/1 22/26/1 23/30/1 24/14/1
f 20/30/2 19/14/2 18/16/2 17/26/2
f 20/30/6 17/26/6 21/16/6 24/14/6
f 18/16/5 19/14/5 23/30/5 22/26/5
f 17/32/3 18/33/3 22/34/3 21/18/3
f 19/33/4 20/35/4 24/27/4 23/34/4
f 29/2/1 30/3/1 31/4/1 32/1/1
f 28/3/2 27/2/2 26/1/2 25/4/2
f 26/35/5 27/36/5 31/37/5 30/27/5
f 25/5/3 26/6/3 30/3/3 29/2/3
f 27/7/4 28/8/4 32/6/4 31/5/4
f 35/33/1 36/35/1 24/27/1 15/34/1
f 11/33/2 20/35/2 34/27/2 33/34/2
f 33/33/3 34/35/3 36/27/3 35/34/3
f 20/33/4 11/35/4 15/27/4 24/34/4
f 40/31/1 41/32/1 42/18/1 23/17/1
f 19/31/2 39/32/2 38/18/2 37/17/2
f 37/31/3 38/32/3 41/18/3 40/17/3
f 39/32/4 19/31/4 23/17/4 42/18/4
f 47/35/1 48/36/1 49/37/1 50/27/1
f 46/35/2 45/36/2 44/37/2 43/27/2
f 44/35/5 45/36/5 49/37/5 48/27/5
f 43/35/3 44/36/3 48/37/3 47/27/3
f 45/35/4 46/36/4 50/37/4 49/27/4
f 54/35/1 15/36/1 55/37/1 56/27/1
f 53/35/2 52/36/2 11/37/2 51/27/2
f 53/35/6 51/36/6 54/37/6 56/27/6
f 11/35/5 52/36/5 55/37/5 15/27/5
f 52/35/4 53/36/4 56/37/4 55/27/4
